<?xml version="1.0" encoding="UTF-8"?>
<svg width="133px" height="53px" viewBox="0 0 133 53" version="1.1" xmlns="http://www.w3.org/2000/svg" xmlns:xlink="http://www.w3.org/1999/xlink">
    <title>19A1F9E5-B3B9-4904-820D-7F1E6007F8B5</title>
    <defs>
        <polygon id="path-1" points="0 52.3776 132.455909 52.3776 132.455909 -0.0004 0 -0.0004"></polygon>
    </defs>
    <g id="Updated" stroke="none" stroke-width="1" fill="none" fill-rule="evenodd">
        <g id="Homepage" transform="translate(-1122.000000, -5784.000000)">
            <g id="KSi-Malta-logo" transform="translate(1122.000000, 5784.000000)">
                <path d="M31.0522758,28.836 C31.0522758,28.918 30.949503,29.02 30.8668818,29.02 L29.1620636,29.02 C29.0572758,29.02 28.9766697,28.918 28.9766697,28.836 L28.9766697,14.816 C28.9766697,14.714 29.0572758,14.612 29.1620636,14.612 L30.8668818,14.612 C30.949503,14.612 31.0522758,14.714 31.0522758,14.816 L31.0522758,18.162 C31.0522758,19.02 31.0522758,19.898 30.9918212,20.694 L31.3202909,20.694 C31.6890636,20.694 32.8598667,19.55 34.4014576,17.856 C35.2679727,16.898 36.2957,15.754 37.3032758,14.774 C37.4040333,14.672 37.5068061,14.612 37.6498818,14.612 L39.7073515,14.612 C39.8121394,14.612 39.8725939,14.694 39.8725939,14.816 C39.8725939,14.918 39.8302758,15 39.7476545,15.04 C39.1531848,15.346 37.5894273,16.918 35.7999727,18.754 C34.6916394,19.878 33.6215939,20.898 33.1480333,21.164 C33.5792758,21.326 34.792397,22.57 36.2533818,24.1 C38.0428364,25.98 40.178897,28.082 40.8378515,28.428 C40.9627909,28.49 41.0010788,28.592 41.0010788,28.712 C41.0010788,28.918 40.9184576,29.02 40.8378515,29.02 L38.6574576,29.02 C38.5143818,29.02 38.3491394,28.94 38.2463667,28.856 C37.0755636,27.774 35.7596697,26.388 34.6493212,25.102 C33.1278818,23.346 31.8341545,22.06 31.3404424,22.06 L30.9696545,22.06 C31.0301091,22.898 31.0522758,23.918 31.0522758,24.878 L31.0522758,28.836 Z" id="Fill-1" fill="#AAAAAA"></path>
                <path d="M49.1295955,25.4064 C49.1295955,23.7144 47.8157167,23.2844 45.6131561,22.3884 C43.6604742,21.6324 41.9334894,20.5504 41.9334894,18.2224 C41.9334894,16.1424 43.6181561,14.1424 46.7638076,14.1424 C48.2026258,14.1424 49.3754439,14.4684 50.3850348,15.1424 C50.5684136,15.2844 50.5905803,15.4064 50.5905803,15.6524 L50.5905803,17.0404 C50.5905803,17.2244 50.4857924,17.3244 50.3447318,17.3244 C50.2419591,17.3244 50.1593379,17.2864 50.0767167,17.2024 C49.0872773,16.2444 47.9366258,15.7944 46.6207318,15.7944 C44.93405,15.7944 44.0090955,16.8164 44.0090955,18.0404 C44.0090955,19.6124 45.4700803,20.1624 47.1144439,20.8164 C49.8469894,21.8364 51.2052015,22.9804 51.2052015,25.1824 C51.2052015,27.7744 49.0691409,29.3064 46.2318076,29.3064 C44.2347924,29.3064 43.2292318,28.9164 41.9516258,28.0204 C41.8307167,27.8984 41.7480955,27.7744 41.7480955,27.5504 L41.7480955,26.4264 C41.7480955,26.2244 41.8307167,26.1024 41.9516258,26.1024 C42.0564136,26.1024 42.1390348,26.1644 42.2196409,26.2444 C43.4146258,27.2024 44.708353,27.7124 46.1491864,27.7124 C47.9970803,27.7124 49.1295955,26.7544 49.1295955,25.4064" id="Fill-3" fill="#AAAAAA"></path>
                <path d="M55.3699152,28.836 C55.3699152,28.918 55.2651273,29.02 55.1825061,29.02 L53.6812182,29.02 C53.5784455,29.02 53.4958242,28.918 53.4958242,28.836 L53.4958242,19.388 C53.4958242,19.286 53.5784455,19.182 53.6812182,19.182 L55.1825061,19.182 C55.2651273,19.182 55.3699152,19.286 55.3699152,19.388 L55.3699152,28.836 Z M55.5915818,15.672 C55.5915818,16.286 55.0595818,16.754 54.4429455,16.754 C53.8061576,16.754 53.2922939,16.286 53.2922939,15.672 C53.2922939,15.04 53.8061576,14.53 54.4429455,14.53 C55.0595818,14.53 55.5915818,15.04 55.5915818,15.672 L55.5915818,15.672 Z" id="Fill-5" fill="#AAAAAA"></path>
                <path d="M0.000403030303,14.8702 L11.091797,0.0002 L11.4666152,0.0022 C10.8137061,1.3322 10.0963121,2.9642 9.4655697,4.6722 C8.60711515,6.9942 7.66200909,10.2782 7.69828182,13.0582 C7.77888788,19.0922 12.4177667,23.3942 12.4177667,29.6062 C12.4177667,29.6062 12.3915697,31.4522 11.8777061,32.1442 C11.8777061,32.1442 4.25035758,20.9022 0.0366757576,14.9062 L0.000403030303,14.8702 Z" id="Fill-7" fill="#AAAAAA"></path>
                <path d="M12.9336455,43.4824 L12.7462364,43.2744 C13.5543121,42.3384 14.6707061,40.8084 15.0737364,40.1924 C16.8289333,37.4884 17.2420394,33.9884 16.9679788,30.9144 C16.2667061,23.1044 7.10381212,13.7724 16.1256455,7.4404 L16.3090242,7.6564 C15.746797,8.4504 13.0525394,10.5704 17.2601758,17.9744 C19.3539182,21.6504 22.6305545,27.2164 21.5101303,32.2724 C19.883903,39.6064 12.9336455,43.4824 12.9336455,43.4824" id="Fill-9" fill="#AAAAAA"></path>
                <polygon id="Fill-11" fill="#AAAAAA" points="33.0398197 50.3566 33.0398197 46.9266 29.6664561 46.9266 29.6664561 50.3566 28.7556076 50.3566 28.7556076 43.1366 29.6664561 43.1366 29.6664561 46.1366 33.0398197 46.1366 33.0398197 43.1366 33.9506682 43.1366 33.9506682 50.3566"></polygon>
                <path d="M38.8964545,47.1368 C38.9065303,46.2528 38.4087879,45.5048 37.4536061,45.5048 C36.5528333,45.5048 35.9704545,46.2948 35.936197,47.1368 L38.8964545,47.1368 Z M39.7226667,48.8928 C39.4062879,49.8728 38.4611818,50.4628 37.4334545,50.4628 C35.7991667,50.4628 34.9628788,49.1788 34.9628788,47.6828 C34.9628788,46.2108 35.8414848,44.8748 37.4536061,44.8748 C39.1302121,44.8748 39.8516364,46.2628 39.8093182,47.7468 L35.8958939,47.7468 C35.8958939,48.1688 35.9160455,48.5568 36.1175606,48.9568 C36.3734848,49.4628 36.933697,49.7668 37.4979394,49.7668 C38.1951818,49.7668 38.7050152,49.3668 38.9387727,48.7368 L39.7226667,48.8928 Z" id="Fill-13" fill="#AAAAAA"></path>
                <mask id="mask-2" fill="white">
                    <use xlink:href="#path-1"></use>
                </mask>
                <g id="Clip-16"></g>
                <polygon id="Fill-15" fill="#AAAAAA" mask="url(#mask-2)" points="40.7443485 50.3576 41.5705606 50.3576 41.5705606 43.1376 40.7443485 43.1376"></polygon>
                <path d="M43.8456667,48.2618 C43.8456667,48.9998 44.5026061,49.7678 45.2663485,49.7678 C45.7217727,49.7678 46.1469697,49.4938 46.3706515,49.1138 C46.6124697,48.7038 46.656803,48.1458 46.656803,47.6738 C46.656803,46.7998 46.3807273,45.5978 45.2663485,45.5978 C44.5348485,45.5978 43.9927727,46.2418 43.8456667,46.9038 L43.8456667,48.2618 Z M43.8456667,52.1038 L43.0174394,52.1038 L43.0174394,45.0118 L43.7711061,45.0118 L43.7711061,46.0418 L43.7932727,46.0418 C44.0673333,45.3378 44.6517273,44.8738 45.4577879,44.8738 C46.9631061,44.8738 47.587803,46.3578 47.587803,47.6418 C47.587803,48.2518 47.4729394,48.9258 47.1545455,49.4618 C46.7817424,50.0518 46.1892879,50.4618 45.4577879,50.4618 C44.7162121,50.4618 44.2164545,50.1258 43.8456667,49.5138 L43.8456667,52.1038 Z" id="Fill-17" fill="#AAAAAA" mask="url(#mask-2)"></path>
                <path d="M48.5389545,50.3556 L49.3651667,50.3556 L49.3651667,45.0096 L48.5389545,45.0096 L48.5389545,50.3556 Z M48.4966364,44.0616 L49.4074848,44.0616 L49.4074848,43.1356 L48.4966364,43.1356 L48.4966364,44.0616 Z" id="Fill-18" fill="#AAAAAA" mask="url(#mask-2)"></path>
                <path d="M51.4597152,45.999 L51.4798667,45.999 C51.7881848,45.337 52.3927303,44.875 53.1564727,44.875 C53.8013212,44.875 54.343397,45.147 54.6839576,45.705 C54.9580182,46.157 54.9378667,46.873 54.9378667,47.399 L54.9378667,50.357 L54.1096394,50.357 L54.1096394,47.051 C54.1096394,46.737 54.1197152,46.335 53.9625333,46.063 C53.7811697,45.757 53.3902303,45.579 53.0395939,45.579 C52.6043212,45.579 52.2113667,45.779 51.9252152,46.115 C51.5765939,46.537 51.5020333,47.021 51.5020333,47.557 L51.5020333,50.357 L50.6738061,50.357 L50.6738061,45.011 L51.4597152,45.011 L51.4597152,45.999 Z" id="Fill-19" fill="#AAAAAA" mask="url(#mask-2)"></path>
                <path d="M59.2506939,46.6944 C59.2506939,46.0204 58.7086182,45.5264 58.0516788,45.5264 C57.3524212,45.5264 56.8425879,46.0204 56.8425879,46.7044 C56.8425879,47.4304 57.3201788,47.8844 58.0516788,47.8844 C58.773103,47.8844 59.2506939,47.4104 59.2506939,46.6944 L59.2506939,46.6944 Z M58.3378303,50.2304 L57.044103,50.1464 C56.7257091,50.2924 56.4617242,50.4924 56.4617242,50.8724 C56.4617242,51.6104 57.6063303,51.7364 58.1584818,51.7364 C58.559497,51.7364 59.1862091,51.6724 59.5449061,51.5044 C59.8451636,51.3784 60.0144364,51.1984 60.0144364,50.8724 C60.0144364,50.3244 59.2829364,50.2524 58.8678152,50.2404 L58.3378303,50.2304 Z M60.3832091,44.1784 L60.5968152,44.1904 L60.6068909,44.8524 L60.5222545,44.8524 C60.0345879,44.8524 59.6537242,44.9044 59.5670727,45.4624 C59.8955424,45.8204 60.0869818,46.2944 60.0869818,46.7784 C60.0869818,47.3044 59.8008303,47.7984 59.3978,48.1144 C59.0068606,48.4104 58.5171788,48.5264 58.0315273,48.5264 C57.9025576,48.5264 57.7776182,48.5264 57.6486485,48.4924 C57.5640121,48.4844 57.3927242,48.4424 57.2980121,48.4424 C57.044103,48.4424 56.7257091,48.6624 56.7257091,48.9364 C56.7257091,49.1884 56.8949818,49.3244 57.1287394,49.3884 C57.4995273,49.4724 58.0194364,49.4624 58.4023152,49.4724 C58.8678152,49.4944 59.556997,49.5044 59.9801788,49.6624 C60.4799364,49.8524 60.8084061,50.3144 60.8084061,50.8404 C60.8084061,52.1984 59.1862091,52.3784 58.1463909,52.3784 C57.6486485,52.3784 57.0320121,52.3464 56.5665121,52.1664 C56.046603,51.9564 55.6435727,51.5784 55.6435727,50.9864 C55.6435727,50.4304 55.9518909,50.0824 56.4617242,49.9044 C56.1534061,49.7044 55.9398,49.4624 55.9398,49.0624 C55.9398,48.5364 56.2501333,48.3044 56.6833909,48.1044 C56.2279667,47.7464 55.9841333,47.2744 55.9841333,46.6944 C55.9841333,45.5364 56.9695424,44.8744 58.0516788,44.8744 C58.4224667,44.8744 58.8053455,44.9464 59.1438909,45.1044 C59.2829364,44.3464 59.6537242,44.1784 60.3832091,44.1784 L60.3832091,44.1784 Z" id="Fill-20" fill="#AAAAAA" mask="url(#mask-2)"></path>
                <path d="M68.9230182,48.589 C68.7315788,49.673 68.0000788,50.463 66.8433818,50.463 C65.2433515,50.463 64.5541697,49.085 64.5541697,47.683 C64.5541697,46.295 65.2534273,44.875 66.8554727,44.875 C68.0222455,44.875 68.7416545,45.621 68.9230182,46.727 L68.1592758,46.863 C68.0847152,46.157 67.6494424,45.567 66.8756242,45.567 C65.7511697,45.567 65.4347909,46.737 65.4347909,47.631 C65.4347909,48.493 65.6987758,49.757 66.8232303,49.757 C67.6272758,49.757 68.0222455,49.177 68.1592758,48.453 L68.9230182,48.589 Z" id="Fill-21" fill="#AAAAAA" mask="url(#mask-2)"></path>
                <polygon id="Fill-22" fill="#AAAAAA" mask="url(#mask-2)" points="69.8592576 50.3576 70.6854697 50.3576 70.6854697 43.1376 69.8592576 43.1376"></polygon>
                <path d="M72.2754242,50.3556 L73.1016364,50.3556 L73.1016364,45.0096 L72.2754242,45.0096 L72.2754242,50.3556 Z M72.2331061,44.0616 L73.1439545,44.0616 L73.1439545,43.1356 L72.2331061,43.1356 L72.2331061,44.0616 Z" id="Fill-23" fill="#AAAAAA" mask="url(#mask-2)"></path>
                <path d="M77.9202667,47.1368 C77.9303424,46.2528 77.4326,45.5048 76.4774182,45.5048 C75.5766455,45.5048 74.9922515,46.2948 74.9600091,47.1368 L77.9202667,47.1368 Z M78.7464788,48.8928 C78.4280848,49.8728 77.4849939,50.4628 76.4552515,50.4628 C74.8229788,50.4628 73.9846758,49.1788 73.9846758,47.6828 C73.9846758,46.2108 74.865297,44.8748 76.4774182,44.8748 C78.1520091,44.8748 78.8754485,46.2628 78.8311152,47.7468 L74.9176909,47.7468 C74.9176909,48.1688 74.9398576,48.5568 75.1413727,48.9568 C75.3952818,49.4628 75.9575091,49.7668 76.5217515,49.7668 C77.2189939,49.7668 77.7288273,49.3668 77.9625848,48.7368 L78.7464788,48.8928 Z" id="Fill-24" fill="#AAAAAA" mask="url(#mask-2)"></path>
                <path d="M80.5317015,45.999 L80.5538682,45.999 C80.8601712,45.337 81.4667318,44.875 82.2284591,44.875 C82.8753227,44.875 83.4173985,45.147 83.7559439,45.705 C84.0320197,46.157 84.0118682,46.873 84.0118682,47.399 L84.0118682,50.357 L83.1816258,50.357 L83.1816258,47.051 C83.1816258,46.737 83.1937167,46.335 83.0345197,46.063 C82.8551712,45.757 82.4622167,45.579 82.1115803,45.579 C81.6763076,45.579 81.2853682,45.779 80.9972015,46.115 C80.6505955,46.537 80.5740197,47.021 80.5740197,47.557 L80.5740197,50.357 L79.7457924,50.357 L79.7457924,45.011 L80.5317015,45.011 L80.5317015,45.999 Z" id="Fill-25" fill="#AAAAAA" mask="url(#mask-2)"></path>
                <path d="M87.8130485,50.3994 L87.0170636,50.4614 C85.8402152,50.4614 85.4915939,49.7774 85.4915939,48.7154 L85.4915939,45.6214 L84.5364121,45.6214 L84.5364121,44.9674 L85.4915939,44.9674 L85.4915939,43.6414 L86.3157909,43.5574 L86.3157909,44.9674 L87.5168212,44.9674 L87.5168212,45.6214 L86.3157909,45.6214 L86.3157909,48.8534 C86.3157909,49.4734 86.4991697,49.7994 87.1782758,49.7994 L87.8130485,49.7474 L87.8130485,50.3994 Z" id="Fill-26" fill="#AAAAAA" mask="url(#mask-2)"></path>
                <path d="M88.9524152,48.7774 C89.0713091,49.5034 89.9297636,49.7774 90.5766273,49.7774 C91.1489303,49.7774 91.8804303,49.5774 91.8804303,48.8934 C91.8804303,48.3254 91.2960364,48.1674 90.8305364,48.0834 L89.9499152,47.9254 C89.123703,47.7674 88.3700364,47.3894 88.3700364,46.4414 C88.3700364,45.3374 89.3997788,44.8734 90.3851879,44.8734 C91.3504455,44.8734 92.2512182,45.2314 92.5172182,46.2214 L91.7534758,46.3794 C91.5418848,45.7894 90.9897333,45.5354 90.3751121,45.5354 C89.8874455,45.5354 89.2284909,45.7254 89.2284909,46.3154 C89.2284909,46.8954 89.7161576,47.0214 90.1937485,47.0934 L90.9796576,47.2314 C91.370597,47.3054 91.7736273,47.3774 92.102097,47.5994 C92.5272939,47.8834 92.7509758,48.3254 92.7509758,48.8094 C92.7509758,50.0194 91.5620364,50.4614 90.5121424,50.4614 C89.4622485,50.4614 88.4224303,50.0314 88.1483697,48.9354 L88.9524152,48.7774 Z" id="Fill-27" fill="#AAAAAA" mask="url(#mask-2)"></path>
                <path d="M97.2040576,48.8164 C97.3209364,49.5424 98.1793909,49.8164 98.8282697,49.8164 C99.4005727,49.8164 100.130058,49.6164 100.130058,48.9324 C100.130058,48.3624 99.5476788,48.2064 99.0821788,48.1224 L98.2015576,47.9644 C97.3753455,47.8064 96.6216788,47.4284 96.6216788,46.4804 C96.6216788,45.3744 97.6514212,44.9124 98.6368303,44.9124 C99.6020879,44.9124 100.502861,45.2704 100.768861,46.2604 L100.007133,46.4164 C99.7915121,45.8284 99.2413758,45.5744 98.6267545,45.5744 C98.1390879,45.5744 97.4801333,45.7644 97.4801333,46.3544 C97.4801333,46.9344 97.9698152,47.0604 98.4453909,47.1324 L99.2313,47.2704 C99.6222394,47.3444 100.02527,47.4164 100.353739,47.6384 C100.776921,47.9224 101.002618,48.3624 101.002618,48.8484 C101.002618,50.0584 99.8136788,50.5004 98.7637848,50.5004 C97.7138909,50.5004 96.6740727,50.0684 96.4000121,48.9744 L97.2040576,48.8164 Z" id="Fill-28" fill="#AAAAAA" mask="url(#mask-2)"></path>
                <path d="M105.309803,50.3956 L105.309803,49.3336 L105.287636,49.3336 C105.021636,49.9956 104.374773,50.4996 103.635212,50.4996 C103.103212,50.4996 102.593379,50.3116 102.254833,49.9016 C101.894121,49.4596 101.829636,48.8476 101.829636,48.3016 L101.829636,45.0496 L102.659879,45.0496 L102.659879,48.3016 C102.659879,48.6056 102.678015,49.0056 102.837212,49.2796 C102.998424,49.5736 103.369212,49.7856 103.707758,49.7856 C104.153106,49.7856 104.53397,49.5856 104.822136,49.2376 C105.150606,48.8376 105.235242,48.3956 105.235242,47.8916 L105.235242,45.0496 L106.061455,45.0496 L106.061455,50.3956 L105.309803,50.3956 Z" id="Fill-29" fill="#AAAAAA" mask="url(#mask-2)"></path>
                <path d="M111.251074,48.627 C111.059635,49.711 110.33015,50.501 109.175468,50.501 C107.573423,50.501 106.882226,49.123 106.882226,47.721 C106.882226,46.333 107.583498,44.913 109.185544,44.913 C110.350302,44.913 111.071726,45.659 111.251074,46.765 L110.487332,46.901 C110.412771,46.197 109.977498,45.605 109.205695,45.605 C108.083256,45.605 107.762847,46.775 107.762847,47.669 C107.762847,48.533 108.026832,49.795 109.151286,49.795 C109.957347,49.795 110.350302,49.217 110.487332,48.491 L111.251074,48.627 Z" id="Fill-30" fill="#AAAAAA" mask="url(#mask-2)"></path>
                <path d="M116.190412,48.627 C115.998973,49.711 115.267473,50.501 114.110776,50.501 C112.510745,50.501 111.821564,49.123 111.821564,47.721 C111.821564,46.333 112.522836,44.913 114.122867,44.913 C115.289639,44.913 116.009048,45.659 116.190412,46.765 L115.42667,46.901 C115.352109,46.197 114.916836,45.605 114.141003,45.605 C113.018564,45.605 112.702185,46.775 112.702185,47.669 C112.702185,48.533 112.96617,49.795 114.090624,49.795 C114.896685,49.795 115.289639,49.217 115.42667,48.491 L116.190412,48.627 Z" id="Fill-31" fill="#AAAAAA" mask="url(#mask-2)"></path>
                <path d="M120.726518,47.1748 C120.736594,46.2908 120.236836,45.5448 119.281655,45.5448 C118.382897,45.5448 117.798503,46.3328 117.764245,47.1748 L120.726518,47.1748 Z M121.55273,48.9328 C121.234336,49.9108 120.291245,50.5008 119.261503,50.5008 C117.627215,50.5008 116.790927,49.2168 116.790927,47.7208 C116.790927,46.2488 117.671548,44.9128 119.281655,44.9128 C120.958261,44.9128 121.679685,46.3008 121.637367,47.7848 L117.723942,47.7848 C117.723942,48.2068 117.746109,48.5948 117.947624,48.9968 C118.199518,49.5008 118.763761,49.8048 119.325988,49.8048 C120.025245,49.8048 120.533064,49.4048 120.768836,48.7748 L121.55273,48.9328 Z" id="Fill-32" fill="#AAAAAA" mask="url(#mask-2)"></path>
                <path d="M126.191408,47.1748 C126.201483,46.2908 125.703741,45.5448 124.748559,45.5448 C123.847786,45.5448 123.265408,46.3328 123.233165,47.1748 L126.191408,47.1748 Z M127.01762,48.9328 C126.701241,49.9108 125.756135,50.5008 124.726392,50.5008 C123.096135,50.5008 122.257832,49.2168 122.257832,47.7208 C122.257832,46.2488 123.136438,44.9128 124.748559,44.9128 C126.425165,44.9128 127.146589,46.3008 127.104271,47.7848 L123.190847,47.7848 C123.190847,48.2068 123.210998,48.5948 123.412514,48.9968 C123.668438,49.5008 124.22865,49.8048 124.792892,49.8048 C125.490135,49.8048 125.999968,49.4048 126.233726,48.7748 L127.01762,48.9328 Z" id="Fill-33" fill="#AAAAAA" mask="url(#mask-2)"></path>
                <path d="M131.626876,47.2276 C131.626876,46.8596 131.576497,46.4796 131.3508,46.1636 C131.086815,45.7856 130.609224,45.5636 130.143724,45.5636 C129.676209,45.5636 129.283255,45.8496 129.053527,46.2376 C128.807679,46.6596 128.731103,47.1436 128.731103,47.6276 C128.731103,48.4996 128.966876,49.8156 130.121558,49.8156 C130.599148,49.8156 131.034421,49.5536 131.310497,49.1736 C131.566421,48.8276 131.626876,48.4796 131.626876,48.0796 L131.626876,47.2276 Z M131.626876,43.1756 L132.455103,43.1756 L132.455103,50.3956 L131.703452,50.3956 L131.703452,49.4476 L131.681285,49.4476 C131.340724,50.1216 130.790588,50.4996 129.992588,50.4996 C129.283255,50.4996 128.741179,50.1636 128.352255,49.5956 C127.979452,49.0476 127.842421,48.3756 127.842421,47.7216 C127.842421,46.3856 128.511452,44.9116 130.071179,44.9116 C130.758345,44.9116 131.246012,45.2376 131.626876,45.7736 L131.626876,43.1756 Z" id="Fill-34" fill="#AAAAAA" mask="url(#mask-2)"></path>
                <path d="M70.8634076,28.6016 C70.8432561,28.6856 70.7384682,28.7896 70.6538318,28.7896 L68.8401955,28.7896 C68.7333924,28.7896 68.6306197,28.7056 68.5862864,28.6016 L64.0118924,15.8356 C64.0542106,16.7996 64.0965288,18.2016 64.0965288,19.1216 L64.0965288,28.6016 C64.0965288,28.6856 63.9917409,28.7896 63.9071045,28.7896 L62.3252106,28.7896 C62.2204227,28.7896 62.1559379,28.6856 62.1559379,28.6016 L62.1559379,14.2256 C62.1559379,14.1196 62.2204227,14.0156 62.3252106,14.0156 L65.003347,14.0156 C65.1081348,14.0156 65.2129227,14.0996 65.2552409,14.2256 L68.8180288,23.5996 C69.1988924,24.7296 69.5777409,25.9016 69.8296348,27.0116 C70.0835439,25.9236 70.4200742,24.7296 70.8210894,23.5596 L74.3012561,14.2256 C74.3435742,14.1416 74.4282106,14.0156 74.55315,14.0156 L77.0217106,14.0156 C77.106347,14.0156 77.2111348,14.1196 77.2111348,14.2256 L77.2111348,28.6016 C77.2111348,28.6856 77.106347,28.7896 77.0217106,28.7896 L75.4821348,28.7896 C75.3753318,28.7896 75.2906955,28.6856 75.2906955,28.6016 L75.2906955,19.4996 C75.2906955,18.1596 75.3350288,16.7356 75.4196652,15.8356 L70.8634076,28.6016 Z" id="Fill-35" fill="#AAAAAA" mask="url(#mask-2)"></path>
                <path d="M91.6720636,28.6016 C91.6720636,28.6856 91.5652606,28.7896 91.4826394,28.7896 L89.9450788,28.7896 C89.8382758,28.7896 89.7536394,28.6856 89.7536394,28.6016 L89.7536394,14.2256 C89.7536394,14.1196 89.8382758,14.0156 89.9450788,14.0156 L91.4826394,14.0156 C91.5652606,14.0156 91.6720636,14.1196 91.6720636,14.2256 L91.6720636,28.6016 Z" id="Fill-36" fill="#AAAAAA" mask="url(#mask-2)"></path>
                <path d="M95.9111364,16.3174 C95.9736061,16.1934 96.0360758,16.1514 96.1630303,16.1514 C96.3343182,16.1514 96.4169394,16.2334 96.4169394,16.4014 L96.4169394,16.8834 C96.4169394,17.4474 96.3343182,18.2214 96.2275152,18.7654 C96.7957879,18.7254 97.8073939,18.7034 98.5671061,18.7034 C98.6517424,18.7034 98.7162273,18.7654 98.7162273,18.8914 L98.7162273,19.9814 C98.7162273,20.0834 98.6718939,20.1474 98.5671061,20.1474 C97.8295606,20.1474 96.9650606,20.1474 96.2275152,20.0834 C96.2899848,20.6914 96.3343182,21.2974 96.3343182,22.4074 L96.3343182,25.6294 C96.3343182,26.9894 96.8602727,27.3874 97.7247727,27.3874 C98.021,27.3874 98.2728939,27.3474 98.4824697,27.2414 C98.6315909,27.1774 98.7162273,27.2414 98.7162273,27.3654 L98.7162273,28.6214 C98.7162273,28.7474 98.6315909,28.8114 98.5247879,28.8314 C98.1459394,28.9154 97.7892576,28.9574 97.4507121,28.9574 C95.7217121,28.9574 94.4360455,27.9114 94.4360455,25.6714 L94.4360455,22.4074 C94.4360455,21.6954 94.5206818,20.6694 94.5831515,20.0834 C94.1619848,20.1474 93.5493788,20.1474 93.2551667,20.1474 C93.1282121,20.1474 93.0435758,19.9994 93.0435758,19.7494 C93.0435758,19.5194 93.0657424,19.3934 93.1906818,19.3294 C94.2667727,18.6614 95.1735909,17.6134 95.9111364,16.3174" id="Fill-37" fill="#AAAAAA" mask="url(#mask-2)"></path>
                <path d="M84.6131894,23.6514 C82.7652955,23.6514 80.790447,24.3434 80.790447,26.0274 C80.790447,26.9434 81.1551894,27.8254 82.8076136,27.8254 C84.5769167,27.8254 85.5038864,26.2614 85.5038864,24.7994 L85.5038864,23.6734 C85.5038864,23.6734 84.7602955,23.6354 84.6131894,23.6514 M82.4952652,29.0874 C80.8186591,29.0874 79.1259318,28.1834 79.1259318,26.1614 C79.1259318,25.0834 79.83325,23.9914 80.9274773,23.3794 C81.920947,22.8234 82.9728561,22.5954 84.5527348,22.5914 L85.5542652,22.6114 L85.5542652,22.2034 C85.5542652,20.8714 84.8227652,20.1934 83.3799167,20.1934 C83.2892348,20.1934 83.1925076,20.1974 83.0937652,20.2034 C82.4025682,20.2434 81.8423561,20.5074 81.4997803,21.0614 C81.29625,21.3954 81.0927197,21.7594 80.5849015,21.7594 C80.0710379,21.7594 79.7244318,21.4174 79.7244318,20.9074 C79.7244318,20.1814 80.7622348,18.8254 83.2569924,18.8254 C85.9149773,18.8254 87.174447,19.9214 87.1804924,22.0814 C87.1825076,22.4874 87.1280985,22.4214 87.1542955,26.4454 C87.1684015,27.7134 87.4605985,28.2674 87.5170227,28.4734 C87.5351591,28.5414 87.5452348,28.5774 87.5452348,28.6094 C87.5452348,28.8034 87.3679015,28.9434 87.2087045,28.9434 L86.5154924,28.9434 L86.509447,28.9434 L86.5054167,28.9434 C85.8867652,28.8894 85.7577955,28.2654 85.7215227,27.5574 C85.0807045,28.5994 84.0469318,29.0874 82.4952652,29.0874" id="Fill-38" fill="#AAAAAA" mask="url(#mask-2)"></path>
                <path d="M105.774295,23.6514 C103.926402,23.6514 101.951553,24.3434 101.951553,26.0274 C101.951553,26.9434 102.316295,27.8254 103.96872,27.8254 C105.738023,27.8254 106.664992,26.2614 106.664992,24.7994 L106.664992,23.6734 C106.664992,23.6734 105.921402,23.6354 105.774295,23.6514 M103.656371,29.0874 C101.979765,29.0874 100.287038,28.1834 100.287038,26.1614 C100.287038,25.0834 100.994356,23.9914 102.088583,23.3794 C103.082053,22.8234 104.133962,22.5954 105.713841,22.5914 L106.713356,22.6114 L106.713356,22.2034 C106.713356,20.8714 105.983871,20.1934 104.541023,20.1934 C104.448326,20.1934 104.353614,20.1974 104.254871,20.2034 C103.563674,20.2434 103.003462,20.5074 102.660886,21.0614 C102.457356,21.3954 102.253826,21.7594 101.746008,21.7594 C101.230129,21.7594 100.885538,21.4174 100.885538,20.9074 C100.885538,20.1814 101.923341,18.8254 104.418098,18.8254 C107.076083,18.8254 108.335553,19.9214 108.341598,22.0814 C108.343614,22.4874 108.289205,22.4214 108.313386,26.4454 C108.327492,27.7134 108.621705,28.2674 108.676114,28.4734 C108.696265,28.5414 108.706341,28.5774 108.706341,28.6094 C108.706341,28.8034 108.526992,28.9434 108.369811,28.9434 L107.676598,28.9434 L107.670553,28.9434 L107.666523,28.9434 C107.047871,28.8894 106.918902,28.2654 106.882629,27.5574 C106.239795,28.5994 105.208038,29.0874 103.656371,29.0874" id="Fill-39" fill="#AAAAAA" mask="url(#mask-2)"></path>
            </g>
        </g>
    </g>
</svg>