<?xml version="1.0" encoding="UTF-8"?>
<svg width="126px" height="35px" viewBox="0 0 126 35" version="1.1" xmlns="http://www.w3.org/2000/svg" xmlns:xlink="http://www.w3.org/1999/xlink">
    <title>72C13600-72D9-478B-ACEC-A963E05F66CB</title>
    <defs>
        <polygon id="path-1" points="0.673503175 0.0496 8.8597619 0.0496 8.8597619 12.7410868 0.673503175 12.7410868"></polygon>
        <polygon id="path-3" points="0.812068254 0.688 12.9375444 0.688 12.9375444 13.7329534 0.812068254 13.7329534"></polygon>
    </defs>
    <g id="Updated" stroke="none" stroke-width="1" fill="none" fill-rule="evenodd">
        <g id="Homepage" transform="translate(-189.000000, -5793.000000)">
            <g id="Mariner-logo" transform="translate(189.000000, 5793.000000)">
                <path d="M60.8390476,34.283 C54.6724921,34.377 48.862746,33.113 43.3271587,30.321 C37.6786825,27.471 31.8911111,24.893 26.1478889,22.225 C24.8194286,21.609 23.4566984,21.045 22.0697778,20.581 C20.6808413,20.119 19.2415079,19.815 18.0259365,19.495 C23.8941429,19.521 29.7361429,20.469 35.2535873,23.247 C41.0572857,26.171 46.9960476,28.837 52.8723175,31.623 C55.420381,32.831 58.0510952,33.781 60.8390476,34.283" id="Fill-1" fill="#AAAAAA"></path>
                <path d="M106.702175,19.4246 C100.743254,20.3986 95.774127,23.6366 90.4481905,25.9806 C86.3640317,27.7766 82.3463968,29.7146 78.3086032,31.6106 C75.0549841,33.1366 71.5856667,33.7886 68.0417619,34.1226 C66.6084762,34.2586 65.167127,34.2946 63.7136825,34.3126 C69.5335079,33.2886 74.4340952,30.0806 79.6975397,27.7526 C83.6204286,26.0186 87.4788095,24.1446 91.3553333,22.3126 C94.5222698,20.8166 97.8928095,20.1186 101.350032,19.7846 C103.130048,19.6126 104.918127,19.5406 106.702175,19.4246" id="Fill-3" fill="#AAAAAA"></path>
                <path d="M123.1519,19.4246 C119.565662,20.0786 116.281805,21.4846 113.024154,23.0526 C106.851551,26.0226 100.612424,28.8606 94.3974873,31.7426 C91.2466778,33.2026 87.8761381,33.7986 84.4511698,34.1226 C83.0178841,34.2586 81.574519,34.2926 80.1190587,34.3046 C85.5397413,33.3926 90.1198048,30.4646 94.9962016,28.2706 C99.2759,26.3446 103.507217,24.3146 107.748614,22.3126 C110.917567,20.8166 114.288106,20.1146 117.747344,19.7826 C119.543487,19.6106 121.34971,19.5406 123.1519,19.4246" id="Fill-5" fill="#AAAAAA"></path>
                <path d="M44.3675508,34.284 C38.8037413,34.262 33.4374873,33.454 28.3635349,30.964 C22.0820746,27.886 15.7038524,25.006 9.37602698,22.032 C6.80780476,20.826 4.13274127,19.972 1.12909048,19.47 C6.9993127,19.588 12.5490111,20.176 17.7277889,22.738 C21.4934397,24.6 25.3336778,26.318 29.1335984,28.112 C31.5788524,29.266 34.0160429,30.442 36.4572651,31.612 C38.983154,32.822 41.5977413,33.768 44.3675508,34.284" id="Fill-7" fill="#AAAAAA"></path>
                <path d="M7.11925714,11.412 C8.82468571,7.99 10.4474635,4.728 12.074273,1.466 C12.185146,1.472 12.296019,1.48 12.4068921,1.486 C13.011654,5.622 13.6144,9.76 14.217146,13.896 C12.8403048,14.158 12.8181302,14.16 12.6427492,12.962 C12.296019,10.57 11.9754952,8.172 11.4775746,5.734 C11.3384794,5.996 11.1933365,6.258 11.0602889,6.524 C9.92333651,8.804 8.79243175,11.086 7.6454,13.362 C7.52444762,13.598 7.30270159,13.784 7.12933651,13.992 C6.95193968,13.788 6.72414603,13.61 6.60520952,13.378 C5.45213016,11.106 4.31719365,8.824 3.1782254,6.546 C3.03913016,6.27 2.88592381,5.998 2.54725714,5.728 C2.16424127,8.466 1.78324127,11.204 1.39417778,13.97 L0.00120952381,13.97 C0.59992381,9.778 1.1905746,5.644 1.78324127,1.512 C1.88806667,1.484 1.99692381,1.456 2.10578095,1.428 C3.74468571,4.696 5.38762222,7.962 7.11925714,11.412" id="Fill-9" fill="#AAAAAA"></path>
                <path d="M86.7462413,10.3728 L86.7462413,1.5188 L88.131146,1.5188 L88.131146,13.9488 C88.0464794,14.0048 87.9597968,14.0608 87.8751302,14.1168 C85.2202254,11.1108 82.5673365,8.1048 79.7592254,4.9228 L79.7592254,13.9548 L78.2715111,13.9548 L78.2715111,1.3168 C78.6484794,1.6228 78.9367492,1.7968 79.1484159,2.0368 C81.3336222,4.5168 83.5087492,7.0048 85.6858921,9.4928 C85.9640825,9.8108 86.2523524,10.1248 86.5365905,10.4428 C86.607146,10.4188 86.6756857,10.3968 86.7462413,10.3728" id="Fill-11" fill="#AAAAAA"></path>
                <g id="Group-15" transform="translate(116.920635, 1.312600)">
                    <mask id="mask-2" fill="white">
                        <use xlink:href="#path-1"></use>
                    </mask>
                    <g id="Clip-14"></g>
                    <path d="M2.20153492,5.5896 C3.35864603,5.5256 4.45326508,5.5376 5.52369365,5.3876 C6.65459841,5.2296 7.19283651,4.5436 7.18275714,3.5376 C7.17267778,2.5496 6.66467778,1.8836 5.57812222,1.7276 C4.4814873,1.5696 3.3606619,1.5756 2.20153492,1.5056 L2.20153492,5.5896 Z M2.17532857,6.7116 L2.17532857,12.5436 C0.79042381,12.9196 0.673503175,12.8336 0.673503175,11.5096 L0.673503175,1.2016 L0.673503175,0.0496 C2.66720159,0.1756 4.57421746,0.1576 6.42882063,0.4576 C7.9326619,0.7016 8.81763016,2.2396 8.69264603,3.7876 C8.55153492,5.4716 7.40853492,6.6276 5.6244873,6.8736 C5.34024921,6.9136 5.05197937,6.9256 4.55405873,6.9696 C6.03774127,8.8856 7.44683651,10.7016 8.85996349,12.5276 C7.69075714,12.9216 7.23516984,12.7976 6.55783651,11.9256 C5.39467778,10.4296 4.23756667,8.9296 3.06029683,7.4456 C2.87483651,7.2136 2.59664603,7.0556 2.17532857,6.7116 L2.17532857,6.7116 Z" id="Fill-13" fill="#AAAAAA" mask="url(#mask-2)"></path>
                </g>
                <path d="M48.0684921,6.9344 C49.3586508,6.8364 50.5641429,6.8164 51.7434286,6.6284 C52.6042063,6.4904 53.0476984,5.8244 53.069873,4.9504 C53.0960794,4.0964 52.7775714,3.3304 51.9006667,3.1664 C50.6548571,2.9344 49.370746,2.9004 48.0684921,2.7784 L48.0684921,6.9344 Z M50.4452063,8.2944 C51.959127,10.2364 53.3641905,12.0384 54.8256984,13.9144 C53.7834921,14.1124 53.0134286,14.1084 52.3623016,13.1584 C51.324127,11.6464 50.132746,10.2364 48.9917619,8.7964 C48.800254,8.5564 48.530127,8.3804 48.2962857,8.1764 C48.2237143,8.2164 48.1511429,8.2544 48.0785714,8.2944 L48.0785714,13.8744 C46.6352063,14.1804 46.5948889,14.1484 46.5948889,12.8304 C46.5948889,9.3364 46.6069841,5.8404 46.582716,2.3464 C46.5787619,1.7024 46.7299524,1.4144 47.4435714,1.4524 C48.6833333,1.5224 49.927127,1.4804 51.1668889,1.5384 C53.2351746,1.6324 54.5535556,2.9004 54.593873,4.7824 C54.6362063,6.6564 53.3520952,8.0004 51.3221111,8.2064 C51.0963333,8.2284 50.8725714,8.2524 50.4452063,8.2944 L50.4452063,8.2944 Z" id="Fill-16" fill="#AAAAAA"></path>
                <g id="Group-20" transform="translate(23.174603, 0.312600)">
                    <mask id="mask-4" fill="white">
                        <use xlink:href="#path-3"></use>
                    </mask>
                    <g id="Clip-19"></g>
                    <path d="M8.86346508,7.9674 C8.20629048,6.5194 7.60959206,5.2094 6.94636984,3.7494 C6.27105238,5.2294 5.66629048,6.5514 5.02322698,7.9674 L8.86346508,7.9674 Z M0.812068254,13.5934 C1.04994127,13.0614 1.27571905,12.5474 1.51157619,12.0354 C3.14241746,8.4694 4.77124286,4.9034 6.41619524,1.3454 C6.53513175,1.0934 6.79316349,0.9054 6.98467143,0.6874 C7.14997302,0.9014 7.3676873,1.0954 7.47654444,1.3354 C9.23035397,5.1914 10.9700524,9.0514 12.7097508,12.9154 C12.8004651,13.1154 12.8589254,13.3314 12.9375444,13.5434 C11.6856873,13.8874 11.5707825,13.8394 11.0647984,12.7534 C10.643481,11.8454 10.2644968,10.9134 9.7806873,10.0394 C9.62949683,9.7654 9.20414762,9.4974 8.8916873,9.4834 C7.56524286,9.4214 6.23678254,9.4254 4.91235397,9.4814 C4.62408413,9.4934 4.23502063,9.7574 4.0959254,10.0114 C3.6322746,10.8654 3.26135397,11.7694 2.85414762,12.6534 C2.30381429,13.8434 2.30381429,13.8434 0.812068254,13.5934 L0.812068254,13.5934 Z" id="Fill-18" fill="#AAAAAA" mask="url(#mask-4)"></path>
                </g>
                <path d="M99.7371317,1.5116 L106.919687,1.5116 L106.919687,2.8816 L101.16437,2.8816 L101.16437,6.5076 L106.881386,6.5076 L106.881386,7.9276 C105.323116,7.9276 103.774925,7.9256 102.226735,7.9276 C101.10591,7.9276 101.103894,7.9296 101.103894,9.0516 C101.101878,10.1876 101.103894,11.3256 101.103894,12.5316 L106.87937,12.5316 L106.87937,13.9636 L99.7371317,13.9636 L99.7371317,1.5116 Z" id="Fill-21" fill="#AAAAAA"></path>
                <path d="M66.8906984,1.5876 L66.8906984,13.8816 C65.5561905,14.2016 65.4816032,14.1456 65.4816032,12.8576 C65.4795873,9.4276 65.4795873,5.9996 65.4816032,2.5696 C65.4816032,1.3476 65.5340159,1.3116 66.8906984,1.5876" id="Fill-23" fill="#AAAAAA"></path>
            </g>
        </g>
    </g>
</svg>