<?xml version="1.0" encoding="UTF-8"?>
<svg width="124px" height="35px" viewBox="0 0 124 35" version="1.1" xmlns="http://www.w3.org/2000/svg" xmlns:xlink="http://www.w3.org/1999/xlink">
    <title>AF1AC7D5-B25C-4977-8862-3807E87C583B</title>
    <defs>
        <polygon id="path-1" points="0.000250252694 0.38 36.2732717 0.38 36.2732717 29.8221333 0.000250252694 29.8221333"></polygon>
        <polygon id="path-3" points="0.426974638 0.517733333 9.26273551 0.517733333 9.26273551 7.33333333 0.426974638 7.33333333"></polygon>
        <polygon id="path-5" points="0 33.3333333 123.25558 33.3333333 123.25558 0.38 0 0.38"></polygon>
    </defs>
    <g id="Updated" stroke="none" stroke-width="1" fill="none" fill-rule="evenodd">
        <g id="Homepage" transform="translate(-893.000000, -5793.000000)">
            <g id="Methode-Electronics-logo" transform="translate(893.000000, 5793.000000)">
                <polygon id="Fill-1" fill="#AAAAAA" points="16.4401993 5.93813333 5.56139493 24.6794667 12.112808 24.6794667 16.2672645 17.4661333 16.2672645 24.6794667 20.8104891 24.6794667 25.3081341 17.4661333 25.3081341 24.6794667 30.3795471 24.6794667 30.3795471 5.93813333 24.9770109 5.93813333 21.2019384 12.2488 21.2019384 5.93813333"></polygon>
                <g id="Group-38" transform="translate(0.000000, 0.287200)">
                    <g id="Group-4">
                        <mask id="mask-2" fill="white">
                            <use xlink:href="#path-1"></use>
                        </mask>
                        <g id="Clip-3"></g>
                        <path d="M31.3332355,0.379466667 L15.8790326,0.379466667 C14.0491413,0.379466667 12.3412428,1.35546667 11.4202645,2.9288 L0.802873188,21.1061333 C-0.304445652,22.9941333 -0.265568841,25.2688 0.916822464,27.1328 C2.01743841,28.8661333 4.02428623,29.8221333 6.08475725,29.8221333 L32.5357355,29.8221333 C34.2449746,29.8221333 35.6297935,28.4448 35.6297935,26.7461333 L35.6297935,26.7141333 L5.9493587,26.7141333 C5.07932246,26.7141333 4.21598913,26.3568 3.69182246,25.6648 C3.01080797,24.7674667 2.94780072,23.6154667 3.50146014,22.6701333 L14.120192,4.4928 C14.4848297,3.87013333 15.153779,3.48746667 15.8790326,3.48746667 L31.3345761,3.48746667 C32.3359891,3.48746667 33.1483804,4.29546667 33.1483804,5.2928 L33.1483804,9.81013333 L36.2732717,9.81013333 L36.2732717,5.2928 C36.2732717,2.57946667 34.0613152,0.379466667 31.3332355,0.379466667" id="Fill-2" fill="#AAAAAA" mask="url(#mask-2)"></path>
                    </g>
                    <polygon id="Fill-5" fill="#AAAAAA" points="33.1333659 12.6841333 45.4626775 12.6841333 45.4626775 15.2361333 37.7060833 15.2361333 37.7060833 17.3708 44.4813732 17.3708 44.4813732 19.5601333 37.7060833 19.5601333 37.7060833 21.8454667 45.7026413 21.8454667 45.7026413 24.3974667 33.1333659 24.3974667"></polygon>
                    <polygon id="Fill-7" fill="#AAAAAA" points="51.231192 15.2362667 46.7777862 15.2362667 46.7777862 12.6842667 60.2331848 12.6842667 60.2331848 15.2362667 55.779779 15.2362667 55.779779 24.3976 51.231192 24.3976"></polygon>
                    <polygon id="Fill-9" fill="#AAAAAA" points="61.7385217 12.6841333 66.3112391 12.6841333 66.3112391 17.1601333 71.1708406 17.1601333 71.1708406 12.6841333 75.7448986 12.6841333 75.7448986 24.3974667 71.1708406 24.3974667 71.1708406 19.7121333 66.3112391 19.7121333 66.3112391 24.3974667 61.7385217 24.3974667"></polygon>
                    <path d="M88.0473986,18.5696 C88.0473986,15.7322667 86.9937029,14.9696 84.7911304,14.9696 C82.588558,14.9696 81.5576522,15.7322667 81.5576522,18.5696 C81.5576522,21.3696 82.6368188,22.0936 84.8152609,22.0936 C86.9695725,22.0936 88.0473986,21.3696 88.0473986,18.5696 M76.9380145,18.5509333 C76.9380145,14.3042667 80.0280507,12.4562667 84.8152609,12.4562667 C89.627942,12.4562667 92.6670362,14.3042667 92.6670362,18.5509333 C92.6670362,22.7789333 89.6038116,24.5882667 84.7911304,24.5882667 C80.0025797,24.5882667 76.9380145,22.7789333 76.9380145,18.5509333" id="Fill-11" fill="#AAAAAA"></path>
                    <path d="M100.685982,21.884 C103.175438,21.884 104.061562,21.2933333 104.061562,18.6466667 C104.061562,15.9986667 103.27196,15.1986667 100.685982,15.1986667 L98.6751123,15.1986667 L98.6751123,21.884 L100.685982,21.884 Z M94.1023949,12.684 L101.141779,12.684 C105.95312,12.684 108.70533,14.456 108.70533,18.512 C108.70533,22.456 105.97725,24.3973333 101.116308,24.3973333 L94.1023949,24.3973333 L94.1023949,12.684 Z" id="Fill-13" fill="#AAAAAA"></path>
                    <polygon id="Fill-15" fill="#AAAAAA" points="110.379043 12.6841333 122.709696 12.6841333 122.709696 15.2361333 114.951761 15.2361333 114.951761 17.3708 121.727051 17.3708 121.727051 19.5601333 114.951761 19.5601333 114.951761 21.8454667 122.949659 21.8454667 122.949659 24.3974667 110.379043 24.3974667"></polygon>
                    <polygon id="Fill-17" fill="#AAAAAA" points="38.648779 26.6464 45.5755543 26.6464 45.5755543 28.0797333 41.2173297 28.0797333 41.2173297 29.2784 45.0232355 29.2784 45.0232355 30.5077333 41.2173297 30.5077333 41.2173297 31.7930667 45.7096123 31.7930667 45.7096123 33.2264 38.648779 33.2264"></polygon>
                    <polygon id="Fill-19" fill="#AAAAAA" points="46.8100942 26.6464 49.3652391 26.6464 49.3652391 31.7930667 53.1858913 31.7930667 53.1858913 33.2264 46.8100942 33.2264"></polygon>
                    <polygon id="Fill-21" fill="#AAAAAA" points="54.2330181 26.6464 61.1597935 26.6464 61.1597935 28.0797333 56.8015688 28.0797333 56.8015688 29.2784 60.6088152 29.2784 60.6088152 30.5077333 56.8015688 30.5077333 56.8015688 31.7930667 61.295192 31.7930667 61.295192 33.2264 54.2330181 33.2264"></polygon>
                    <path d="M61.7764601,29.942 C61.7764601,27.7486667 63.3234891,26.646 65.7700471,26.646 L68.7166413,26.646 L68.7166413,28.07 L66.4309529,28.07 C64.9509529,28.07 64.3865688,28.594 64.3865688,29.942 C64.3865688,31.2886667 64.9509529,31.8033333 66.4309529,31.8033333 L68.7166413,31.8033333 L68.7166413,33.226 L65.7700471,33.226 C63.3234891,33.226 61.7764601,32.1233333 61.7764601,29.942" id="Fill-23" fill="#AAAAAA"></path>
                    <polygon id="Fill-25" fill="#AAAAAA" points="71.9041377 28.08 69.4026159 28.08 69.4026159 26.6466667 76.9594638 26.6466667 76.9594638 28.08 74.457942 28.08 74.457942 33.2253333 71.9041377 33.2253333"></polygon>
                    <path d="M81.6651667,29.7486667 C82.7148406,29.7486667 83.1853841,29.5673333 83.1853841,28.83 C83.1853841,28.1553333 82.755058,27.898 81.7871594,27.898 L80.1194783,27.898 L80.1194783,29.7486667 L81.6651667,29.7486667 Z M84.732413,31.5153333 L85.8223043,33.226 L83.1853841,33.226 L82.1088986,31.4833333 C81.8273768,31.0646667 81.6262899,30.9153333 81.0605652,30.9153333 L80.1194783,30.9153333 L80.1194783,33.226 L77.5629928,33.226 L77.5629928,26.646 L82.1772681,26.646 C84.6787899,26.646 85.6600942,27.3846667 85.6600942,28.7966667 C85.6600942,29.8873333 84.9214348,30.4446667 83.8583551,30.722 C84.1948406,30.8513333 84.4629565,31.0766667 84.732413,31.5153333 L84.732413,31.5153333 Z" id="Fill-27" fill="#AAAAAA"></path>
                    <g id="Group-31" transform="translate(85.797101, 26.000000)">
                        <mask id="mask-4" fill="white">
                            <use xlink:href="#path-3"></use>
                        </mask>
                        <g id="Clip-30"></g>
                        <path d="M6.66737319,3.9524 C6.66737319,2.35906667 6.07617754,1.92973333 4.83748188,1.92973333 C3.60012681,1.92973333 3.02099638,2.35906667 3.02099638,3.9524 C3.02099638,5.5244 3.62693841,5.93106667 4.85222826,5.93106667 C6.06143116,5.93106667 6.66737319,5.5244 6.66737319,3.9524 M0.426974638,3.94173333 C0.426974638,1.5564 2.16168478,0.517733333 4.85222826,0.517733333 C7.55349638,0.517733333 9.26273551,1.5564 9.26273551,3.94173333 C9.26273551,6.3164 7.54009058,7.33373333 4.83748188,7.33373333 C2.14827899,7.33373333 0.426974638,6.3164 0.426974638,3.94173333" id="Fill-29" fill="#AAAAAA" mask="url(#mask-4)"></path>
                    </g>
                    <path d="M95.8643188,26.6464 L98.5267101,26.6464 L100.880768,29.8770667 C101.190442,30.2944 101.431746,30.7650667 101.431746,30.7650667 L101.431746,26.6464 L103.623594,26.6464 L103.623594,33.2264 L101.00142,33.2264 L98.6473623,29.9837333 C98.3122174,29.5357333 98.0561667,29.0637333 98.0561667,29.0637333 L98.0561667,33.2264 L95.8643188,33.2264 L95.8643188,26.6464 Z" id="Fill-32" fill="#AAAAAA"></path>
                    <mask id="mask-6" fill="white">
                        <use xlink:href="#path-5"></use>
                    </mask>
                    <g id="Clip-35"></g>
                    <polygon id="Fill-34" fill="#AAAAAA" mask="url(#mask-6)" points="104.77971 33.2266667 107.348261 33.2266667 107.348261 26.6466667 104.77971 26.6466667"></polygon>
                    <path d="M108.262134,29.942 C108.262134,27.7486667 109.807822,26.646 112.255721,26.646 L115.200975,26.646 L115.200975,28.07 L112.915286,28.07 C111.435286,28.07 110.870902,28.594 110.870902,29.942 C110.870902,31.2886667 111.435286,31.8033333 112.915286,31.8033333 L115.200975,31.8033333 L115.200975,33.226 L112.255721,33.226 C109.807822,33.226 108.262134,32.1233333 108.262134,29.942" id="Fill-36" fill="#AAAAAA" mask="url(#mask-6)"></path>
                    <path d="M116.181207,31.7922667 L119.920083,31.7922667 C120.417438,31.7922667 120.794141,31.6216 120.794141,31.1829333 C120.794141,30.7229333 120.471062,30.5416 119.960301,30.5416 L118.481641,30.5416 C116.760337,30.5416 115.938562,29.7696 115.938562,28.6149333 C115.938562,27.4269333 116.81396,26.6469333 118.575482,26.6469333 L122.798308,26.6469333 L122.798308,28.0802667 L119.247112,28.0802667 C118.71088,28.0802667 118.374395,28.2296 118.374395,28.6896 C118.374395,29.1176 118.667982,29.2989333 119.206895,29.2989333 L120.739178,29.2989333 C122.435011,29.2989333 123.254105,30.0269333 123.254105,31.2576 C123.254105,32.4869333 122.381388,33.2256 120.673489,33.2256 L116.181207,33.2256 L116.181207,31.7922667 Z" id="Fill-37" fill="#AAAAAA" mask="url(#mask-6)"></path>
                </g>
            </g>
        </g>
    </g>
</svg>