<?xml version="1.0" encoding="UTF-8"?>
<svg width="128px" height="54px" viewBox="0 0 128 54" version="1.1" xmlns="http://www.w3.org/2000/svg" xmlns:xlink="http://www.w3.org/1999/xlink">
    <title>E08EB098-C7C7-4C6A-B80D-89446586E71E</title>
    <defs>
        <polygon id="path-1" points="0 52 127.965984 52 127.965984 0.572 0 0.572"></polygon>
    </defs>
    <g id="Updated" stroke="none" stroke-width="1" fill="none" fill-rule="evenodd">
        <g id="Homepage" transform="translate(-422.000000, -5783.000000)">
            <g id="Montekristo-logo" transform="translate(422.000000, 5783.000000)">
                <polygon id="Fill-1" fill="#AAAAAA" points="20.9342812 38.0914 20.7931875 31.4514 17.4331406 37.1294 17.2900312 37.1294 13.9057969 31.4374 13.7909062 38.0914 12.7447969 38.0914 13.1055937 28.5414 13.2990937 28.5154 17.4069375 35.5914 21.4119844 28.5154 21.6195937 28.5414 21.9824062 38.0914"></polygon>
                <g id="Group-55" transform="translate(0.000000, 0.427400)">
                    <path d="M29.6188031,29.036 C27.5144906,29.036 26.0148656,30.754 26.0148656,32.972 C26.0148656,35.19 27.5144906,36.908 29.6188031,36.908 C31.7130375,36.908 33.2106469,35.19 33.2106469,32.972 C33.2106469,30.754 31.7130375,29.036 29.6188031,29.036 M29.5684125,37.818 C27.0105844,37.818 24.8901469,35.792 24.8901469,32.972 C24.8901469,30.152 27.0992719,28.114 29.6591156,28.114 C32.2169438,28.114 34.3353656,30.152 34.3353656,32.972 C34.3353656,35.792 32.1262406,37.818 29.5684125,37.818" id="Fill-2" fill="#AAAAAA"></path>
                    <polygon id="Fill-4" fill="#AAAAAA" points="44.5568016 37.8428 38.4091453 30.5368 38.4091453 37.6648 37.3751297 37.6648 37.3751297 28.1388 37.5807234 28.0888 43.6538016 35.2788 43.6538016 28.2668 44.6858016 28.2668 44.6858016 37.8048"></polygon>
                    <polygon id="Fill-6" fill="#AAAAAA" points="51.5367094 29.1904 51.5367094 37.6644 50.5026937 37.6644 50.5026937 29.1904 47.3381625 29.1904 47.3381625 28.2664 54.6871313 28.2664 54.6871313 29.1904"></polygon>
                    <polygon id="Fill-8" fill="#AAAAAA" points="57.3415078 37.664 57.3415078 28.266 62.8824609 28.266 62.8824609 29.19 58.3755234 29.19 58.3755234 32.434 62.4309609 32.434 62.4309609 33.356 58.3755234 33.356 58.3755234 36.742 62.8824609 36.742 62.8824609 37.664"></polygon>
                    <polygon id="Fill-10" fill="#AAAAAA" points="71.3603813 37.664 67.0852406 33.048 67.0852406 37.664 66.0492094 37.664 66.0492094 28.266 67.0852406 28.266 67.0852406 32.638 71.2051781 28.266 72.5092875 28.266 68.1172406 32.83 72.7168969 37.664"></polygon>
                    <path d="M77.4346688,29.126 C76.9952625,29.126 76.4671688,29.152 76.1305594,29.228 L76.1305594,33.048 C76.4409656,33.086 76.9166531,33.114 77.2794656,33.114 C79.0512,33.114 79.8131063,32.306 79.8131063,31.088 C79.8131063,29.986 78.9867,29.126 77.4346688,29.126 L77.4346688,29.126 Z M80.3553094,37.664 L77.8357781,33.96 C77.6281688,33.972 77.422575,33.984 77.2028719,33.984 C76.89045,33.984 76.4409656,33.972 76.1305594,33.96 L76.1305594,37.664 L75.0965438,37.664 L75.0965438,28.356 C75.79395,28.266 76.4913562,28.204 77.2794656,28.204 C79.7224031,28.204 80.9217,29.408 80.9217,31.024 C80.9217,32.332 80.1859969,33.318 78.8556844,33.742 L81.6070125,37.664 L80.3553094,37.664 Z" id="Fill-12" fill="#AAAAAA"></path>
                    <mask id="mask-2" fill="white">
                        <use xlink:href="#path-1"></use>
                    </mask>
                    <g id="Clip-15"></g>
                    <polygon id="Fill-14" fill="#AAAAAA" mask="url(#mask-2)" points="84.1160625 37.664 85.1520938 37.664 85.1520938 28.266 84.1160625 28.266"></polygon>
                    <path d="M90.60315,37.8174 C89.5308375,37.8174 88.6923375,37.4834 87.8639156,36.9454 L88.3678219,36.0494 C89.0914313,36.5614 89.9178375,36.8814 90.6535406,36.8814 C91.8689625,36.8814 92.4373688,36.0874 92.4373688,35.2414 C92.4373688,34.4214 92.1148688,33.9334 90.5628375,33.2534 C88.9241344,32.5354 88.3154156,31.8054 88.3154156,30.6774 C88.3154156,29.3174 89.4784313,28.1134 91.2118688,28.1134 C92.0100563,28.1134 92.7739781,28.3834 93.3161813,28.7554 L92.8505719,29.6254 C92.3869781,29.2934 91.7661656,29.0494 91.1473688,29.0494 C89.95815,29.0494 89.3514469,29.7674 89.3514469,30.6254 C89.3514469,31.2794 89.8029469,31.8054 90.9659625,32.3314 C92.941275,33.2154 93.4975875,33.8694 93.4975875,35.1254 C93.4975875,36.6514 92.2438688,37.8174 90.60315,37.8174" id="Fill-16" fill="#AAAAAA" mask="url(#mask-2)"></path>
                    <polygon id="Fill-17" fill="#AAAAAA" mask="url(#mask-2)" points="99.842775 29.1904 99.842775 37.6644 98.8087594 37.6644 98.8087594 29.1904 95.6442281 29.1904 95.6442281 28.2664 102.995213 28.2664 102.995213 29.1904"></polygon>
                    <path d="M109.405303,29.036 C107.300991,29.036 105.801366,30.754 105.801366,32.972 C105.801366,35.19 107.300991,36.908 109.405303,36.908 C111.499538,36.908 112.997147,35.19 112.997147,32.972 C112.997147,30.754 111.499538,29.036 109.405303,29.036 M109.354912,37.818 C106.797084,37.818 104.676647,35.792 104.676647,32.972 C104.676647,30.152 106.885772,28.114 109.445616,28.114 C112.003444,28.114 114.121866,30.152 114.121866,32.972 C114.121866,35.792 111.912741,37.818 109.354912,37.818" id="Fill-18" fill="#AAAAAA" mask="url(#mask-2)"></path>
                    <polygon id="Fill-19" fill="#AAAAAA" mask="url(#mask-2)" points="48.9246609 51.9082 48.9246609 46.2682 52.2504422 46.2682 52.2504422 46.8242 49.5454734 46.8242 49.5454734 48.7682 51.9803484 48.7682 51.9803484 49.3242 49.5454734 49.3242 49.5454734 51.3542 52.2504422 51.3542 52.2504422 51.9082"></polygon>
                    <path d="M55.3672031,52 C54.7242188,52 54.2223281,51.8 53.7264844,51.476 L54.0268125,50.938 C54.4621875,51.246 54.9580313,51.438 55.3994531,51.438 C56.1291094,51.438 56.46975,50.962 56.46975,50.454 C56.46975,49.962 56.27625,49.668 55.3450313,49.262 C54.3614063,48.832 53.9965781,48.392 53.9965781,47.714 C53.9965781,46.9 54.6939844,46.176 55.7340469,46.176 C56.2137656,46.176 56.6692969,46.338 56.9978438,46.562 L56.7176719,47.084 C56.4375,46.884 56.066625,46.738 55.6937344,46.738 C54.9822188,46.738 54.6173906,47.168 54.6173906,47.684 C54.6173906,48.078 54.8874844,48.392 55.5848906,48.708 C56.7720938,49.238 57.1046719,49.63 57.1046719,50.384 C57.1046719,51.3 56.3528438,52 55.3672031,52" id="Fill-20" fill="#AAAAAA" mask="url(#mask-2)"></path>
                    <polygon id="Fill-21" fill="#AAAAAA" mask="url(#mask-2)" points="60.9121875 46.8232 60.9121875 51.9072 60.291375 51.9072 60.291375 46.8232 58.3926563 46.8232 58.3926563 46.2692 62.8028438 46.2692 62.8028438 46.8232"></polygon>
                    <path d="M65.8980375,47.4072 L64.8499125,49.8312 L66.9461625,49.8312 L65.8980375,47.4072 Z M67.8431156,51.9072 L67.1698969,50.3452 L64.6261781,50.3452 L63.9509438,51.9072 L63.3079594,51.9072 L65.857725,46.1692 L65.9605219,46.1692 L68.5102875,51.9072 L67.8431156,51.9072 Z" id="Fill-22" fill="#AAAAAA" mask="url(#mask-2)"></path>
                    <polygon id="Fill-23" fill="#AAAAAA" mask="url(#mask-2)" points="71.5728281 46.8232 71.5728281 51.9072 70.9520156 51.9072 70.9520156 46.8232 69.0532969 46.8232 69.0532969 46.2692 73.4634844 46.2692 73.4634844 46.8232"></polygon>
                    <polygon id="Fill-24" fill="#AAAAAA" mask="url(#mask-2)" points="75.0550219 51.9082 75.0550219 46.2682 78.3808031 46.2682 78.3808031 46.8242 75.6758344 46.8242 75.6758344 48.7682 78.1107094 48.7682 78.1107094 49.3242 75.6758344 49.3242 75.6758344 51.3542 78.3808031 51.3542 78.3808031 51.9082"></polygon>
                    <polygon id="Fill-25" fill="#AAAAAA" mask="url(#mask-2)" points="77.2181906 16.8008 77.1395812 16.5248 49.9508156 16.5248 49.8722063 16.8008"></polygon>
                    <polygon id="Fill-26" fill="#AAAAAA" mask="url(#mask-2)" points="76.6179375 14.6942 50.4732656 14.6942 50.3886094 14.9862 76.7005781 14.9862"></polygon>
                    <path d="M49.9088906,12.001 L49.9088906,6.245 L49.810125,6.245 L49.7415938,5.979 L48.0444375,5.979 L47.9759063,6.245 L47.89125,6.245 L47.89125,12.001 C48.02025,12.001 48.0444375,12.105 48.0444375,12.233 L48.0444375,12.433 L49.7577188,12.433 L49.7577188,12.233 C49.7577188,12.105 49.7839219,12.001 49.9088906,12.001" id="Fill-27" fill="#AAAAAA" mask="url(#mask-2)"></path>
                    <polygon id="Fill-28" fill="#AAAAAA" mask="url(#mask-2)" points="49.6871719 18.01 77.4060469 18.01 77.4060469 17.708 49.6871719 17.708"></polygon>
                    <polygon id="Fill-29" fill="#AAAAAA" mask="url(#mask-2)" points="76.9662375 15.914 50.126175 15.914 50.04555 16.196 77.0448469 16.196"></polygon>
                    <polygon id="Fill-30" fill="#AAAAAA" mask="url(#mask-2)" points="76.7910797 15.3046 50.2977047 15.3046 50.2150641 15.5926 76.8737203 15.5926"></polygon>
                    <path d="M46.9070203,5.9794 L41.9405203,5.9794 L41.8719891,6.2434 L41.7873328,6.2434 L41.7873328,12.0014 C41.9143172,12.0014 41.9385047,12.1054 41.9385047,12.2314 L41.9385047,12.4334 L43.0088016,12.4334 L43.0088016,8.0614 L43.4502234,8.0614 L43.4502234,7.5254 L42.7024266,7.5254 L42.5310984,7.3494 C43.0269422,6.8734 43.7001609,6.5794 44.4439266,6.5794 C45.1876922,6.5794 45.8609109,6.8734 46.3587703,7.3474 L46.1854266,7.5254 L45.4396453,7.5254 L45.4396453,8.0614 L45.8790516,8.0614 L45.8790516,12.4334 L46.9231453,12.4334 L46.9231453,12.2314 C46.9231453,12.1054 46.9473328,12.0014 47.0763328,12.0014 L47.0763328,6.2434 L46.9755516,6.2434 L46.9070203,5.9794 Z" id="Fill-31" fill="#AAAAAA" mask="url(#mask-2)"></path>
                    <polygon id="Fill-32" fill="#AAAAAA" mask="url(#mask-2)" points="77.3147391 17.1338 49.7752547 17.1338 49.6986609 17.4038 77.3913328 17.4038"></polygon>
                    <path d="M80.2238906,12.2324 L80.2238906,12.4324 L81.2962031,12.4324 L81.2962031,8.0604 L81.7356094,8.0604 L81.7356094,7.5244 L80.9898281,7.5244 L80.8164844,7.3484 C81.3123281,6.8724 81.9875625,6.5804 82.7313281,6.5804 C83.4750938,6.5804 84.1483125,6.8724 84.6441563,7.3484 L84.4708125,7.5244 L83.7270469,7.5244 L83.7270469,8.0604 L84.1664531,8.0604 L84.1664531,12.4324 L85.2105469,12.4324 L85.2105469,12.2324 C85.2105469,12.1064 85.2327188,12.0004 85.3617188,12.0004 L85.3617188,6.2444 L85.2609375,6.2444 L85.1944219,5.9804 L80.2259063,5.9804 L80.1593906,6.2444 L80.0727188,6.2444 L80.0727188,12.0004 C80.1997031,12.0004 80.2238906,12.1064 80.2238906,12.2324" id="Fill-33" fill="#AAAAAA" mask="url(#mask-2)"></path>
                    <path d="M77.3324766,12.2324 L77.3324766,12.4324 L79.1062266,12.4324 L79.1062266,12.2324 C79.1062266,12.1064 79.1283984,12.0004 79.2573984,12.0004 L79.2573984,6.2444 L79.1566172,6.2444 L79.0880859,5.9804 L77.3486016,5.9804 L77.2800703,6.2444 L77.1792891,6.2444 L77.1792891,12.0004 C77.3082891,12.0004 77.3324766,12.1064 77.3324766,12.2324" id="Fill-34" fill="#AAAAAA" mask="url(#mask-2)"></path>
                    <path d="M50.8792125,12.2324 L50.8792125,12.4324 L51.7882594,12.4324 L51.7882594,12.2324 C51.7882594,12.1064 51.8124469,12.0004 51.9414469,12.0004 L51.9414469,6.2444 L51.8426813,6.2444 L51.7721344,5.9804 L50.8792125,5.9804 L50.8106813,6.2444 L50.726025,6.2444 L50.726025,12.0004 C50.8530094,12.0004 50.8792125,12.1064 50.8792125,12.2324" id="Fill-35" fill="#AAAAAA" mask="url(#mask-2)"></path>
                    <polygon id="Fill-36" fill="#AAAAAA" mask="url(#mask-2)" points="65.4572203 12.6464 65.4572203 13.2684 76.2085641 13.2684 76.2085641 13.2664 76.2085641 12.6464"></polygon>
                    <path d="M69.1792734,12.2324 L69.1792734,12.4324 L70.2374766,12.4324 L70.2374766,8.0604 L70.6788984,8.0604 L70.6788984,7.5244 L69.9311016,7.5244 L69.7597734,7.3484 C70.2556172,6.8724 70.9308516,6.5804 71.6746172,6.5804 C72.4163672,6.5804 73.0895859,6.8724 73.5874453,7.3484 L73.4141016,7.5244 L72.6683203,7.5244 L72.6683203,8.0604 L73.1077266,8.0604 L73.1077266,12.4324 L74.1800391,12.4324 L74.1800391,12.2324 C74.1800391,12.1064 74.2042266,12.0004 74.3332266,12.0004 L74.3332266,6.2444 L74.2485703,6.2444 L74.1780234,5.9804 L69.1953984,5.9804 L69.1268672,6.2444 L69.0281016,6.2444 L69.0281016,12.0004 C69.1550859,12.0004 69.1792734,12.1064 69.1792734,12.2324" id="Fill-37" fill="#AAAAAA" mask="url(#mask-2)"></path>
                    <path d="M67.1479266,12.2324 L67.1479266,12.4324 L68.0589891,12.4324 L68.0589891,12.2324 C68.0589891,12.1064 68.0831766,12.0004 68.2101609,12.0004 L68.2101609,6.2444 L68.1255047,6.2444 L68.0569734,5.9804 L67.1640516,5.9804 L67.0955203,6.2444 L66.9947391,6.2444 L66.9947391,12.0004 C67.1237391,12.0004 67.1479266,12.1064 67.1479266,12.2324" id="Fill-38" fill="#AAAAAA" mask="url(#mask-2)"></path>
                    <polygon id="Fill-39" fill="#AAAAAA" mask="url(#mask-2)" points="76.4425781 14.0848 50.6466094 14.0848 50.5619531 14.3828 76.5272344 14.3828"></polygon>
                    <polygon id="Fill-40" fill="#AAAAAA" mask="url(#mask-2)" points="50.8812281 12.6464 50.8812281 13.2664 50.8812281 13.2684 61.6728844 13.2684 61.6728844 12.6464"></polygon>
                    <polygon id="Fill-41" fill="#AAAAAA" mask="url(#mask-2)" points="50.7354984 13.7782 76.3561078 13.7782 76.2694359 13.4802 50.8201547 13.4802"></polygon>
                    <path d="M61.0617469,12.2324 L61.0617469,12.4324 L61.6724813,12.4324 L61.6724813,7.3524 L61.41045,7.3524 L61.41045,6.4024 L65.7218719,6.4024 L65.7218719,7.3524 L65.457825,7.3524 L65.457825,12.4324 L66.0282469,12.4324 L66.0282469,12.2324 C66.0282469,12.1064 66.0524344,12.0004 66.1794187,12.0004 L66.1794187,6.2444 L66.0947625,6.2444 L66.0262312,5.9804 L61.0637625,5.9804 L60.9952312,6.2444 L60.910575,6.2444 L60.910575,12.0004 C61.0375594,12.0004 61.0617469,12.1064 61.0617469,12.2324" id="Fill-42" fill="#AAAAAA" mask="url(#mask-2)"></path>
                    <path d="M75.3009281,12.2324 L75.3009281,12.4324 L76.2119906,12.4324 L76.2119906,12.2324 C76.2119906,12.1064 76.2341625,12.0004 76.3631625,12.0004 L76.3631625,6.2444 L76.2785063,6.2444 L76.209975,5.9804 L75.3170531,5.9804 L75.2485219,6.2444 L75.1497562,6.2444 L75.1497562,12.0004 C75.2767406,12.0004 75.3009281,12.1064 75.3009281,12.2324" id="Fill-43" fill="#AAAAAA" mask="url(#mask-2)"></path>
                    <path d="M52.9087453,12.2324 L52.9087453,12.4324 L53.9810578,12.4324 L53.9810578,8.0604 L54.4224797,8.0604 L54.4224797,7.5244 L53.6746828,7.5244 L53.5033547,7.3484 C53.9991984,6.8724 54.6724172,6.5804 55.4161828,6.5804 C56.1599484,6.5804 56.8331672,6.8724 57.3290109,7.3484 L57.1556672,7.5244 L56.4119016,7.5244 L56.4119016,8.0604 L56.8533234,8.0604 L56.8533234,12.4324 L57.9095109,12.4324 L57.9095109,12.2324 C57.9095109,12.1064 57.9336984,12.0004 58.0647141,12.0004 L58.0647141,6.2444 L57.9639328,6.2444 L57.8954016,5.9804 L52.9107609,5.9804 L52.8442453,6.2444 L52.7575734,6.2444 L52.7575734,12.0004 C52.8845578,12.0004 52.9087453,12.1064 52.9087453,12.2324" id="Fill-44" fill="#AAAAAA" mask="url(#mask-2)"></path>
                    <path d="M59.0304,12.2324 L59.0304,12.4324 L59.9414625,12.4324 L59.9414625,12.2324 C59.9414625,12.1064 59.96565,12.0004 60.0926344,12.0004 L60.0926344,6.2444 L59.9958844,6.2444 L59.9253375,5.9804 L59.0344312,5.9804 L58.9638844,6.2444 L58.8792281,6.2444 L58.8792281,12.0004 C59.0062125,12.0004 59.0304,12.1064 59.0304,12.2324" id="Fill-45" fill="#AAAAAA" mask="url(#mask-2)"></path>
                    <path d="M26.5479984,11.333 L26.5479984,4.999 L26.4552797,4.999 L26.3786859,4.705 L25.8546234,4.705 L25.8546234,6.459 L25.8546234,11.821 L26.3807016,11.821 L26.3807016,11.585 C26.3807016,11.447 26.4089203,11.333 26.5479984,11.333" id="Fill-46" fill="#AAAAAA" mask="url(#mask-2)"></path>
                    <path d="M37.5652031,11.8202 L37.5652031,11.5862 C37.5652031,11.4462 37.5914063,11.3322 37.7325,11.3322 L37.7325,4.9982 L37.6377656,4.9982 L37.5611719,4.7042 L36.5835938,4.7042 L36.507,4.9982 L36.3961406,4.9982 L36.3961406,11.3322 C36.5372344,11.3322 36.5634375,11.4462 36.5634375,11.5862 L36.5634375,11.8202 L37.5652031,11.8202 Z" id="Fill-47" fill="#AAAAAA" mask="url(#mask-2)"></path>
                    <path d="M28.6148203,11.8202 L28.6148203,11.5862 C28.6148203,11.4462 28.6430391,11.3322 28.7841328,11.3322 L28.7841328,4.9982 L28.6893984,4.9982 L28.6107891,4.7042 L27.6332109,4.7042 L27.5566172,4.9982 L27.4457578,4.9982 L27.4457578,11.3322 C27.5868516,11.3322 27.6130547,11.4462 27.6130547,11.5862 L27.6130547,11.8202 L28.6148203,11.8202 Z" id="Fill-48" fill="#AAAAAA" mask="url(#mask-2)"></path>
                    <path d="M35.3310844,11.8202 L35.3310844,11.5862 C35.3310844,11.4462 35.3572875,11.3322 35.4983812,11.3322 L35.4983812,4.9982 L35.4036469,4.9982 L35.3270531,4.7042 L29.866725,4.7042 L29.7901313,4.9982 L29.6792719,4.9982 L29.6792719,11.3322 C29.8223812,11.3322 29.8465688,11.4462 29.8465688,11.5862 L29.8465688,11.8202 L30.9894281,11.8202 L30.9894281,6.9722 L31.4751938,6.9722 L31.4751938,6.3802 L30.6487875,6.3802 L30.4573031,6.1862 C31.0055531,5.6602 31.75335,5.3362 32.575725,5.3362 C33.3960844,5.3362 34.1418656,5.6602 34.6921313,6.1842 L34.4986313,6.3822 L33.6762562,6.3822 L33.6762562,6.9722 L34.1620219,6.9722 L34.1600063,11.8202 L35.3310844,11.8202 Z" id="Fill-49" fill="#AAAAAA" mask="url(#mask-2)"></path>
                    <path d="M97.2702328,11.8202 L97.2702328,11.5862 C97.2702328,11.4462 97.2984516,11.3322 97.4395453,11.3322 L97.4395453,4.9982 L97.3448109,4.9982 L97.2682172,4.7042 L91.8078891,4.7042 L91.7312953,4.9982 L91.6204359,4.9982 L91.6204359,11.3322 C91.7635453,11.3322 91.7877328,11.4462 91.7877328,11.5862 L91.7877328,11.8202 L92.9285766,11.8202 L92.9305922,6.9722 L93.4163578,6.9722 L93.4163578,6.3802 L92.5899516,6.3802 L92.3984672,6.1862 C92.9467172,5.6602 93.6924984,5.3362 94.5168891,5.3362 C95.3372484,5.3362 96.0830297,5.6602 96.6312797,6.1842 L96.4377797,6.3822 L95.6174203,6.3822 L95.6174203,6.9722 L96.1011703,6.9722 L96.1011703,11.8202 L97.2702328,11.8202 Z" id="Fill-50" fill="#AAAAAA" mask="url(#mask-2)"></path>
                    <path d="M90.5559844,11.8202 L90.5559844,11.5862 C90.5559844,11.4462 90.5821875,11.3322 90.7232812,11.3322 L90.7232812,4.9982 L90.6285469,4.9982 L90.5519531,4.7042 L89.5723594,4.7042 L89.4957656,4.9982 L89.3869219,4.9982 L89.3869219,11.3322 C89.526,11.3322 89.5542187,11.4462 89.5542187,11.5862 L89.5542187,11.8202 L90.5559844,11.8202 Z" id="Fill-51" fill="#AAAAAA" mask="url(#mask-2)"></path>
                    <path d="M101.279714,11.8202 L101.279714,6.4582 L101.279714,4.7042 L100.755652,4.7042 L100.679058,4.9982 L100.568198,4.9982 L100.568198,11.3322 C100.711308,11.3322 100.737511,11.4462 100.737511,11.5862 L100.737511,11.8202 L101.279714,11.8202 Z" id="Fill-52" fill="#AAAAAA" mask="url(#mask-2)"></path>
                    <path d="M99.5061656,11.8202 L99.5061656,11.5862 C99.5061656,11.4462 99.5323688,11.3322 99.6734625,11.3322 L99.6734625,4.9982 L99.5787281,4.9982 L99.5021344,4.7042 L98.5225406,4.7042 L98.4459469,4.9982 L98.3371031,4.9982 L98.3371031,11.3322 C98.4761813,11.3322 98.5023844,11.4462 98.5023844,11.5862 L98.5023844,11.8202 L99.5061656,11.8202 Z" id="Fill-53" fill="#AAAAAA" mask="url(#mask-2)"></path>
                    <path d="M48.1865391,18.3134 L48.1865391,16.5214 L48.0555234,16.5214 L47.9809453,15.9134 L48.8678203,15.9134 L49.5632109,13.4794 L39.3399609,13.4794 L39.3399609,13.2674 L49.6236797,13.2674 L49.7889609,12.6474 L39.3399609,12.6474 L39.3399609,12.4334 L40.8194297,12.4334 L40.8194297,12.2314 C40.8194297,12.1054 40.8416016,12.0014 40.9706016,12.0014 L40.9706016,6.2434 L40.8698203,6.2434 L40.8033047,5.9794 L39.3379453,5.9794 L39.3379453,5.7674 L87.7935703,5.7674 L87.7935703,5.9794 L86.3322422,5.9794 L86.2637109,6.2434 L86.1770391,6.2434 L86.1770391,12.0014 C86.3060391,12.0014 86.3302266,12.1054 86.3302266,12.2314 L86.3302266,12.4334 L87.7915547,12.4334 L87.7915547,12.6474 L77.2961953,12.6474 L77.4655078,13.2674 L87.7915547,13.2674 L87.7915547,13.4794 L77.5279922,13.4794 L78.2213672,15.9134 L79.1082422,15.9134 L79.0356797,16.5214 L78.9026484,16.5214 L78.9026484,18.3134 L48.1865391,18.3134 Z M43.3087266,17.0874 L45.5299453,17.0874 L45.5299453,14.8834 L43.3087266,14.8834 L43.3087266,17.0874 Z M31.3721953,16.9994 L33.8151328,16.9994 L33.8151328,14.5754 L31.3721953,14.5754 L31.3721953,16.9994 Z M39.3399609,5.1794 L87.7915547,5.1794 L87.7915547,4.9674 L39.3399609,4.9674 L39.3399609,5.1794 Z M42.0973359,3.3034 C42.0247734,3.1254 42.1316016,2.9794 42.3351797,2.9794 C42.5367422,2.9794 42.6435703,3.1254 42.5730234,3.3034 C42.5024766,3.4794 42.5024766,3.7714 42.5730234,3.9494 C42.6435703,4.1274 42.5367422,4.2734 42.3351797,4.2734 C42.1316016,4.2734 42.0247734,4.1274 42.0973359,3.9494 C42.1678828,3.7714 42.1678828,3.4794 42.0973359,3.3034 L42.0973359,3.3034 Z M43.1394141,3.3034 C43.0668516,3.1254 43.1756953,2.9794 43.3772578,2.9794 C43.5808359,2.9794 43.6876641,3.1254 43.6151016,3.3034 C43.5445547,3.4794 43.5445547,3.7714 43.6151016,3.9494 C43.6876641,4.1274 43.5808359,4.2734 43.3772578,4.2734 C43.1756953,4.2734 43.0668516,4.1274 43.1394141,3.9494 C43.2099609,3.7714 43.2099609,3.4794 43.1394141,3.3034 L43.1394141,3.3034 Z M44.1814922,3.3034 C44.1109453,3.1254 44.2157578,2.9794 44.4213516,2.9794 C44.6208984,2.9794 44.7297422,3.1254 44.6591953,3.3034 C44.5866328,3.4794 44.5866328,3.7714 44.6591953,3.9494 C44.7297422,4.1274 44.6208984,4.2734 44.4213516,4.2734 C44.2157578,4.2734 44.1109453,4.1274 44.1814922,3.9494 C44.2520391,3.7714 44.2520391,3.4794 44.1814922,3.3034 L44.1814922,3.3034 Z M45.2235703,3.3034 C45.1530234,3.1254 45.2598516,2.9794 45.4614141,2.9794 C45.6649922,2.9794 45.7738359,3.1254 45.7012734,3.3034 C45.6287109,3.4794 45.6287109,3.7714 45.7012734,3.9494 C45.7738359,4.1274 45.6649922,4.2734 45.4614141,4.2734 C45.2598516,4.2734 45.1530234,4.1274 45.2235703,3.9494 C45.2941172,3.7714 45.2941172,3.4794 45.2235703,3.3034 L45.2235703,3.3034 Z M46.2676641,3.3034 C46.1971172,3.1254 46.3019297,2.9794 46.5055078,2.9794 C46.7090859,2.9794 46.8138984,3.1254 46.7433516,3.3034 C46.6728047,3.4794 46.6728047,3.7714 46.7433516,3.9494 C46.8138984,4.1274 46.7090859,4.2734 46.5055078,4.2734 C46.3019297,4.2734 46.1971172,4.1274 46.2676641,3.9494 C46.3382109,3.7714 46.3382109,3.4794 46.2676641,3.3034 L46.2676641,3.3034 Z M53.0945859,3.3034 C53.0200078,3.1254 53.1288516,2.9794 53.3304141,2.9794 C53.5339922,2.9794 53.6408203,3.1254 53.5702734,3.3034 C53.4997266,3.4794 53.4997266,3.7714 53.5702734,3.9494 C53.6408203,4.1274 53.5339922,4.2734 53.3304141,4.2734 C53.1288516,4.2734 53.0200078,4.1274 53.0945859,3.9494 C53.1651328,3.7714 53.1651328,3.4794 53.0945859,3.3034 L53.0945859,3.3034 Z M54.1346484,3.3034 C54.0641016,3.1254 54.1729453,2.9794 54.3724922,2.9794 C54.5780859,2.9794 54.6849141,3.1254 54.6123516,3.3034 C54.5397891,3.4794 54.5397891,3.7714 54.6123516,3.9494 C54.6849141,4.1274 54.5780859,4.2734 54.3724922,4.2734 C54.1729453,4.2734 54.0641016,4.1274 54.1346484,3.9494 C54.2072109,3.7714 54.2072109,3.4794 54.1346484,3.3034 L54.1346484,3.3034 Z M55.1787422,3.3034 C55.1081953,3.1254 55.2130078,2.9794 55.4165859,2.9794 C55.6201641,2.9794 55.7269922,3.1254 55.6544297,3.3034 C55.5838828,3.4794 55.5838828,3.7714 55.6544297,3.9494 C55.7269922,4.1274 55.6201641,4.2734 55.4165859,4.2734 C55.2130078,4.2734 55.1081953,4.1274 55.1787422,3.9494 C55.2492891,3.7714 55.2492891,3.4794 55.1787422,3.3034 L55.1787422,3.3034 Z M56.2208203,3.3034 C56.1482578,3.1254 56.2571016,2.9794 56.4586641,2.9794 C56.6622422,2.9794 56.7690703,3.1254 56.6985234,3.3034 C56.6259609,3.4794 56.6259609,3.7714 56.6985234,3.9494 C56.7690703,4.1274 56.6622422,4.2734 56.4586641,4.2734 C56.2571016,4.2734 56.1482578,4.1274 56.2208203,3.9494 C56.2913672,3.7714 56.2913672,3.4794 56.2208203,3.3034 L56.2208203,3.3034 Z M57.2628984,3.3034 C57.1923516,3.1254 57.2991797,2.9794 57.5027578,2.9794 C57.7043203,2.9794 57.8111484,3.1254 57.7406016,3.3034 C57.6680391,3.4794 57.6680391,3.7714 57.7406016,3.9494 C57.8111484,4.1274 57.7043203,4.2734 57.5027578,4.2734 C57.2991797,4.2734 57.1923516,4.1274 57.2628984,3.9494 C57.3354609,3.7714 57.3354609,3.4794 57.2628984,3.3034 L57.2628984,3.3034 Z M61.1711953,3.3034 C61.1006484,3.1254 61.2074766,2.9794 61.4110547,2.9794 C61.6126172,2.9794 61.7194453,3.1254 61.6488984,3.3034 C61.5783516,3.4794 61.5783516,3.7714 61.6488984,3.9494 C61.7194453,4.1274 61.6126172,4.2734 61.4110547,4.2734 C61.2074766,4.2734 61.1006484,4.1274 61.1711953,3.9494 C61.2437578,3.7714 61.2437578,3.4794 61.1711953,3.3034 L61.1711953,3.3034 Z M62.2152891,3.3034 C62.1427266,3.1254 62.2515703,2.9794 62.4531328,2.9794 C62.6567109,2.9794 62.7615234,3.1254 62.6909766,3.3034 C62.6204297,3.4794 62.6204297,3.7714 62.6909766,3.9494 C62.7615234,4.1274 62.6567109,4.2734 62.4531328,4.2734 C62.2515703,4.2734 62.1427266,4.1274 62.2152891,3.9494 C62.2858359,3.7714 62.2858359,3.4794 62.2152891,3.3034 L62.2152891,3.3034 Z M63.2573672,3.3034 C63.1848047,3.1254 63.2936484,2.9794 63.4952109,2.9794 C63.6967734,2.9794 63.8056172,3.1254 63.7350703,3.3034 C63.6625078,3.4794 63.6625078,3.7714 63.7350703,3.9494 C63.8056172,4.1274 63.6967734,4.2734 63.4952109,4.2734 C63.2936484,4.2734 63.1848047,4.1274 63.2573672,3.9494 C63.3279141,3.7714 63.3279141,3.4794 63.2573672,3.3034 L63.2573672,3.3034 Z M64.2994453,3.3034 C64.2288984,3.1254 64.3357266,2.9794 64.5372891,2.9794 C64.7408672,2.9794 64.8497109,3.1254 64.7751328,3.3034 C64.7045859,3.4794 64.7045859,3.7714 64.7751328,3.9494 C64.8497109,4.1274 64.7408672,4.2734 64.5372891,4.2734 C64.3357266,4.2734 64.2288984,4.1274 64.2994453,3.9494 C64.3699922,3.7714 64.3699922,3.4794 64.2994453,3.3034 L64.2994453,3.3034 Z M65.3435391,3.3034 C65.2709766,3.1254 65.3778047,2.9794 65.5813828,2.9794 C65.7829453,2.9794 65.8897734,3.1254 65.8192266,3.3034 C65.7486797,3.4794 65.7486797,3.7714 65.8192266,3.9494 C65.8897734,4.1274 65.7829453,4.2734 65.5813828,4.2734 C65.3778047,4.2734 65.2709766,4.1274 65.3435391,3.9494 C65.4140859,3.7714 65.4140859,3.4794 65.3435391,3.3034 L65.3435391,3.3034 Z M69.3506016,3.3034 C69.2780391,3.1254 69.3868828,2.9794 69.5884453,2.9794 C69.7900078,2.9794 69.8968359,3.1254 69.8262891,3.3034 C69.7557422,3.4794 69.7557422,3.7714 69.8262891,3.9494 C69.8968359,4.1274 69.7900078,4.2734 69.5884453,4.2734 C69.3868828,4.2734 69.2780391,4.1274 69.3506016,3.9494 C69.4191328,3.7714 69.4191328,3.4794 69.3506016,3.3034 L69.3506016,3.3034 Z M70.3926797,3.3034 C70.3201172,3.1254 70.4269453,2.9794 70.6305234,2.9794 C70.8320859,2.9794 70.9409297,3.1254 70.8683672,3.3034 C70.7998359,3.4794 70.7998359,3.7714 70.8683672,3.9494 C70.9409297,4.1274 70.8320859,4.2734 70.6305234,4.2734 C70.4269453,4.2734 70.3201172,4.1274 70.3926797,3.9494 C70.4632266,3.7714 70.4632266,3.4794 70.3926797,3.3034 L70.3926797,3.3034 Z M71.4347578,3.3034 C71.3642109,3.1254 71.4710391,2.9794 71.6726016,2.9794 C71.8761797,2.9794 71.9850234,3.1254 71.9124609,3.3034 C71.8398984,3.4794 71.8398984,3.7714 71.9124609,3.9494 C71.9850234,4.1274 71.8761797,4.2734 71.6726016,4.2734 C71.4710391,4.2734 71.3642109,4.1274 71.4347578,3.9494 C71.5053047,3.7714 71.5053047,3.4794 71.4347578,3.3034 L71.4347578,3.3034 Z M72.4788516,3.3034 C72.4062891,3.1254 72.5131172,2.9794 72.7166953,2.9794 C72.9202734,2.9794 73.0250859,3.1254 72.9545391,3.3034 C72.8819766,3.4794 72.8819766,3.7714 72.9545391,3.9494 C73.0250859,4.1274 72.9202734,4.2734 72.7166953,4.2734 C72.5131172,4.2734 72.4062891,4.1274 72.4788516,3.9494 C72.5493984,3.7714 72.5493984,3.4794 72.4788516,3.3034 L72.4788516,3.3034 Z M73.5189141,3.3034 C73.4483672,3.1254 73.5551953,2.9794 73.7587734,2.9794 C73.9603359,2.9794 74.0691797,3.1254 73.9986328,3.3034 C73.9260703,3.4794 73.9260703,3.7714 73.9986328,3.9494 C74.0691797,4.1274 73.9603359,4.2734 73.7587734,4.2734 C73.5551953,4.2734 73.4483672,4.1274 73.5189141,3.9494 C73.5914766,3.7714 73.5914766,3.4794 73.5189141,3.3034 L73.5189141,3.3034 Z M80.4063047,3.3034 C80.3357578,3.1254 80.4425859,2.9794 80.6461641,2.9794 C80.8477266,2.9794 80.9565703,3.1254 80.8840078,3.3034 C80.8134609,3.4794 80.8134609,3.7714 80.8840078,3.9494 C80.9565703,4.1274 80.8477266,4.2734 80.6461641,4.2734 C80.4425859,4.2734 80.3357578,4.1274 80.4063047,3.9494 C80.4788672,3.7714 80.4788672,3.4794 80.4063047,3.3034 L80.4063047,3.3034 Z M81.4503984,3.3034 C81.3778359,3.1254 81.4866797,2.9794 81.6882422,2.9794 C81.8918203,2.9794 81.9966328,3.1254 81.9260859,3.3034 C81.8555391,3.4794 81.8555391,3.7714 81.9260859,3.9494 C81.9966328,4.1274 81.8918203,4.2734 81.6882422,4.2734 C81.4866797,4.2734 81.3778359,4.1274 81.4503984,3.9494 C81.5209453,3.7714 81.5209453,3.4794 81.4503984,3.3034 L81.4503984,3.3034 Z M82.4924766,3.3034 C82.4199141,3.1254 82.5287578,2.9794 82.7323359,2.9794 C82.9318828,2.9794 83.0407266,3.1254 82.9701797,3.3034 C82.8996328,3.4794 82.8996328,3.7714 82.9701797,3.9494 C83.0407266,4.1274 82.9318828,4.2734 82.7323359,4.2734 C82.5287578,4.2734 82.4199141,4.1274 82.4924766,3.9494 C82.5650391,3.7714 82.5650391,3.4794 82.4924766,3.3034 L82.4924766,3.3034 Z M83.5345547,3.3034 C83.4640078,3.1254 83.5708359,2.9794 83.7723984,2.9794 C83.9759766,2.9794 84.0848203,3.1254 84.0122578,3.3034 C83.9396953,3.4794 83.9396953,3.7714 84.0122578,3.9494 C84.0848203,4.1274 83.9759766,4.2734 83.7723984,4.2734 C83.5708359,4.2734 83.4640078,4.1274 83.5345547,3.9494 C83.6051016,3.7714 83.6051016,3.4794 83.5345547,3.3034 L83.5345547,3.3034 Z M84.5786484,3.3034 C84.5081016,3.1254 84.6129141,2.9794 84.8164922,2.9794 C85.0180547,2.9794 85.1248828,3.1254 85.0543359,3.3034 C84.9837891,3.4794 84.9837891,3.7714 85.0543359,3.9494 C85.1248828,4.1274 85.0180547,4.2734 84.8164922,4.2734 C84.6129141,4.2734 84.5081016,4.1274 84.5786484,3.9494 C84.6491953,3.7714 84.6491953,3.4794 84.5786484,3.3034 L84.5786484,3.3034 Z M93.3204141,16.9994 L95.7633516,16.9994 L95.7633516,14.5754 L93.3204141,14.5754 L93.3204141,16.9994 Z M81.5955234,17.0874 L83.8167422,17.0874 L83.8167422,14.8834 L81.5955234,14.8834 L81.5955234,17.0874 Z M35.2925859,2.4414 C35.3752266,2.6474 35.2502578,2.8134 35.0184609,2.8134 C34.7846484,2.8134 34.6616953,2.6474 34.7443359,2.4414 C34.8269766,2.2374 34.8269766,1.9014 34.7443359,1.6974 C34.6616953,1.4934 34.7846484,1.3254 35.0184609,1.3254 C35.2502578,1.3254 35.3752266,1.4934 35.2925859,1.6974 C35.2099453,1.9014 35.2099453,2.2374 35.2925859,2.4414 L35.2925859,2.4414 Z M34.0932891,2.4414 C34.1759297,2.6474 34.0509609,2.8134 33.8191641,2.8134 C33.5873672,2.8134 33.4623984,2.6474 33.5450391,2.4414 C33.6256641,2.2374 33.6256641,1.9014 33.5450391,1.6974 C33.4623984,1.4934 33.5873672,1.3254 33.8191641,1.3254 C34.0509609,1.3254 34.1759297,1.4934 34.0932891,1.6974 C34.0106484,1.9014 34.0106484,2.2374 34.0932891,2.4414 L34.0932891,2.4414 Z M32.8939922,2.4414 C32.9766328,2.6474 32.8536797,2.8134 32.6198672,2.8134 C32.3880703,2.8134 32.2651172,2.6474 32.3477578,2.4414 C32.4283828,2.2374 32.4283828,1.9014 32.3477578,1.6974 C32.2651172,1.4934 32.3880703,1.3254 32.6198672,1.3254 C32.8536797,1.3254 32.9766328,1.4934 32.8939922,1.6974 C32.8113516,1.9014 32.8113516,2.2374 32.8939922,2.4414 L32.8939922,2.4414 Z M31.6946953,2.4414 C31.7773359,2.6474 31.6543828,2.8134 31.4225859,2.8134 C31.1867578,2.8134 31.0638047,2.6474 31.1464453,2.4414 C31.2290859,2.2374 31.2290859,1.9014 31.1464453,1.6974 C31.0638047,1.4934 31.1867578,1.3254 31.4225859,1.3254 C31.6543828,1.3254 31.7773359,1.4934 31.6946953,1.6974 C31.6120547,1.9014 31.6120547,2.2374 31.6946953,2.4414 L31.6946953,2.4414 Z M30.4974141,2.4414 C30.5780391,2.6474 30.4550859,2.8134 30.2232891,2.8134 C29.9914922,2.8134 29.8645078,2.6474 29.9471484,2.4414 C30.0297891,2.2374 30.0297891,1.9014 29.9471484,1.6974 C29.8645078,1.4934 29.9914922,1.3254 30.2232891,1.3254 C30.4550859,1.3254 30.5780391,1.4934 30.4974141,1.6974 C30.4147734,1.9014 30.4147734,2.2374 30.4974141,2.4414 L30.4974141,2.4414 Z M91.8288516,1.6974 C91.7482266,1.4934 91.8711797,1.3254 92.1049922,1.3254 C92.3367891,1.3254 92.4617578,1.4934 92.3791172,1.6974 C92.2964766,1.9014 92.2964766,2.2374 92.3791172,2.4414 C92.4617578,2.6474 92.3367891,2.8134 92.1049922,2.8134 C91.8711797,2.8134 91.7482266,2.6474 91.8288516,2.4414 C91.9114922,2.2374 91.9114922,1.9014 91.8288516,1.6974 L91.8288516,1.6974 Z M93.0301641,1.6974 C92.9455078,1.4934 93.0704766,1.3254 93.3042891,1.3254 C93.5360859,1.3254 93.6610547,1.4934 93.5784141,1.6974 C93.4957734,1.9014 93.4957734,2.2374 93.5784141,2.4414 C93.6610547,2.6474 93.5360859,2.8134 93.3042891,2.8134 C93.0704766,2.8134 92.9455078,2.6474 93.0301641,2.4414 C93.1107891,2.2374 93.1107891,1.9014 93.0301641,1.6974 L93.0301641,1.6974 Z M94.2274453,1.6974 C94.1468203,1.4934 94.2677578,1.3254 94.5035859,1.3254 C94.7353828,1.3254 94.8583359,1.4934 94.7756953,1.6974 C94.6950703,1.9014 94.6950703,2.2374 94.7756953,2.4414 C94.8583359,2.6474 94.7353828,2.8134 94.5035859,2.8134 C94.2677578,2.8134 94.1468203,2.6474 94.2274453,2.4414 C94.3100859,2.2374 94.3100859,1.9014 94.2274453,1.6974 L94.2274453,1.6974 Z M95.4267422,1.6974 C95.3441016,1.4934 95.4690703,1.3254 95.7008672,1.3254 C95.9326641,1.3254 96.0576328,1.4934 95.9749922,1.6974 C95.8943672,1.9014 95.8943672,2.2374 95.9749922,2.4414 C96.0576328,2.6474 95.9326641,2.8134 95.7008672,2.8134 C95.4690703,2.8134 95.3441016,2.6474 95.4267422,2.4414 C95.5093828,2.2374 95.5093828,1.9014 95.4267422,1.6974 L95.4267422,1.6974 Z M96.6260391,1.6974 C96.5433984,1.4934 96.6683672,1.3254 96.9001641,1.3254 C97.1319609,1.3254 97.2569297,1.4934 97.1763047,1.6974 C97.0936641,1.9014 97.0936641,2.2374 97.1763047,2.4414 C97.2569297,2.6474 97.1319609,2.8134 96.9001641,2.8134 C96.6683672,2.8134 96.5433984,2.6474 96.6260391,2.4414 C96.7066641,2.2374 96.7066641,1.9014 96.6260391,1.6974 L96.6260391,1.6974 Z M118.995445,18.3134 L101.929148,18.3134 L101.624789,13.2634 L87.7935703,13.2634 L87.7935703,13.0514 L101.280117,13.0514 L101.280117,12.0334 L87.7935703,12.0334 L87.7935703,11.8194 L88.3216641,11.8194 L88.3216641,11.5854 C88.3216641,11.4454 88.3478672,11.3334 88.4889609,11.3334 L88.4889609,4.9974 L88.3942266,4.9974 L88.3176328,4.7034 L87.7915547,4.7034 L87.7915547,4.4894 L101.280117,4.4894 L101.69332,4.4894 L102.102492,3.4954 L87.7915547,3.4954 L87.7915547,3.2834 L101.280117,3.2834 L101.280117,1.7494 L101.282133,1.7574 L101.427258,1.7574 L101.572383,0.5714 L87.5053359,0.5714 L87.6524766,1.7574 L87.7935703,1.7574 L87.7915547,2.2254 L77.6247422,2.2254 L49.5087891,2.2254 L49.5047578,2.2254 L39.3399609,2.2254 L39.3399609,1.7574 L39.4830703,1.7574 L39.6281953,0.5714 L25.5611484,0.5714 L25.7082891,1.7574 L25.8534141,1.7574 L25.8554297,3.2694 L39.3379453,3.2694 L39.3379453,3.4814 L25.0330547,3.4814 L25.4422266,4.4894 L25.8554297,4.4894 L39.3379453,4.4894 L39.3379453,4.7034 L38.8158984,4.7034 L38.7393047,4.9974 L38.6304609,4.9974 L38.6304609,11.3334 C38.7715547,11.3334 38.7977578,11.4454 38.7977578,11.5854 L38.7977578,11.8194 L39.3419766,11.8194 L39.3419766,12.0334 L25.8554297,12.0334 L25.8554297,13.0514 L39.3379453,13.0514 L39.3379453,13.2634 L25.5127734,13.2634 L25.2063984,18.3134 L8.97255469,18.3134 L0.0010078125,18.3134 L0.0010078125,18.6294 L8.97255469,18.6294 L118.995445,18.6294 L127.966992,18.6294 L127.966992,18.3134 L118.995445,18.3134 Z" id="Fill-54" fill="#AAAAAA" mask="url(#mask-2)"></path>
                </g>
            </g>
        </g>
    </g>
</svg>