<?xml version="1.0" encoding="UTF-8"?>
<svg width="120px" height="52px" viewBox="0 0 120 52" version="1.1" xmlns="http://www.w3.org/2000/svg" xmlns:xlink="http://www.w3.org/1999/xlink">
    <title>8B0DB3CB-DBFC-4A2E-8A64-4AB169B485B9</title>
    <defs>
        <polygon id="path-1" points="0.716118333 0.0842 15.782635 0.0842 15.782635 15 0.716118333 15"></polygon>
        <polygon id="path-3" points="0 0.2454 10.4529883 0.2454 10.4529883 14.8354 0 14.8354"></polygon>
        <polygon id="path-5" points="0.37147 0.0842 12.51987 0.0842 12.51987 15 0.37147 15"></polygon>
    </defs>
    <g id="Updated" stroke="none" stroke-width="1" fill="none" fill-rule="evenodd">
        <g id="Homepage" transform="translate(-660.000000, -5784.000000)">
            <g id="Tigne-Point-logo" transform="translate(660.000000, 5784.000000)">
                <path d="M61.87577,19.4424 L65.14277,19.4424 L68.42187,22.6824 L61.87577,29.1664 L61.87577,19.4424 Z M61.87577,9.7204 L61.87577,3.2404 L65.14277,6.4804 L65.14277,9.7204 L61.87577,9.7204 Z" id="Fill-1" fill="#AAAAAA"></path>
                <path d="M58.6065517,16.2022 L52.0725517,9.7202 L61.8755683,9.7202 L61.8755683,12.9602 L58.6065517,16.2022 Z M71.6886683,12.9602 L71.6886683,9.7202 L78.2267017,9.7202 L74.957685,12.9602 L71.6886683,12.9602 Z" id="Fill-2" fill="#AAAAAA"></path>
                <polygon id="Fill-3" fill="#AAAAAA" points="71.6892733 19.4424 71.6892733 16.2024 74.95829 12.9604 81.50439 19.4424"></polygon>
                <polygon id="Fill-4" fill="#AAAAAA" points="55.33935 19.4424 58.60635 16.2024 61.8753667 16.2024 61.8753667 19.4424"></polygon>
                <polygon id="Fill-5" fill="#AAAAAA" points="68.4220717 22.6826 68.4220717 19.4426 71.6890717 19.4426 71.6890717 25.9266"></polygon>
                <polygon id="Fill-6" fill="#AAAAAA" points="71.68887 0.0004 65.14277 6.4804 68.42187 9.7204 71.68887 9.7204"></polygon>
                <g id="Group-32" transform="translate(0.000000, 32.219400)">
                    <path d="M61.87577,18.8354 L61.87577,4.2454 L64.89472,4.2454 C67.94997,4.2454 69.8476533,5.9094 69.8476533,8.7874 C69.8476533,11.2674 68.3149867,13.5014 64.7414533,13.5014 L63.8682367,13.5014 L65.36662,12.0154 C67.26632,11.8374 68.0931533,10.5554 68.0931533,8.7614 C68.0931533,6.9514 66.96987,5.7554 64.7656533,5.7554 L63.50322,5.7554 L63.50322,11.8994 L63.50322,12.0394 L63.50322,13.5014 L63.50322,13.8534 L63.50322,18.8354 L61.87577,18.8354 Z" id="Fill-7" fill="#AAAAAA"></path>
                    <polygon id="Fill-9" fill="#AAAAAA" points="88.7718517 18.8354 88.7718517 5.9194 90.3993017 4.3054 90.3993017 18.8354"></polygon>
                    <polygon id="Fill-11" fill="#AAAAAA" points="112.932527 18.8354 112.932527 5.7554 108.70761 5.7554 108.70761 4.2454 119.08941 4.2454 117.568843 5.7554 114.57006 5.7554 114.57006 18.8354"></polygon>
                    <polygon id="Fill-13" fill="#AAAAAA" points="95.8263533 8.6 95.8263533 18.836 94.1968867 18.836 94.1968867 4.246 104.72187 14.484 104.72187 5.874 106.34932 4.246 106.34932 18.836"></polygon>
                    <g id="Group-17" transform="translate(70.583333, 4.000000)">
                        <mask id="mask-2" fill="white">
                            <use xlink:href="#path-1"></use>
                        </mask>
                        <g id="Clip-16"></g>
                        <path d="M0.716118333,7.5482 C0.716118333,3.4182 4.09201833,0.0842 8.25441833,0.0842 C12.4087517,0.0842 15.782635,3.4182 15.782635,7.5482 C15.782635,11.6642 12.4087517,15.0002 8.25441833,15.0002 C4.09201833,15.0002 0.716118333,11.6642 0.716118333,7.5482 M2.26290167,7.5482 C2.26290167,10.8222 4.941035,13.4782 8.25441833,13.4782 C11.5577183,13.4782 14.2358517,10.8222 14.2358517,7.5482 C14.2358517,4.2582 11.5577183,1.6022 8.25441833,1.6022 C4.941035,1.6022 2.26290167,4.2582 2.26290167,7.5482" id="Fill-15" fill="#AAAAAA" mask="url(#mask-2)"></path>
                    </g>
                    <path d="M47.3396367,18.8354 L47.3396367,4.2454 L54.5028367,4.2454 L52.9802533,5.7554 L48.9691033,5.7554 L48.9691033,17.3254 L54.6198033,17.3254 L54.6198033,18.8354 L47.3396367,18.8354 Z M49.35832,12.1094 L50.8567033,10.6234 L53.8877533,10.6234 L53.8877533,12.1094 L49.35832,12.1094 Z" id="Fill-18" fill="#AAAAAA"></path>
                    <g id="Group-22" transform="translate(0.000000, 4.000000)">
                        <mask id="mask-4" fill="white">
                            <use xlink:href="#path-3"></use>
                        </mask>
                        <g id="Clip-21"></g>
                        <polygon id="Fill-20" fill="#AAAAAA" mask="url(#mask-4)" points="4.223505 14.8354 4.223505 1.7554 -0.00141166667 1.7554 -0.00141166667 0.2454 10.4529883 0.2454 8.92838833 1.7554 5.86103833 1.7554 5.86103833 14.8354"></polygon>
                    </g>
                    <g id="Group-25" transform="translate(16.133333, 4.000000)">
                        <mask id="mask-6" fill="white">
                            <use xlink:href="#path-5"></use>
                        </mask>
                        <g id="Clip-24"></g>
                        <path d="M0.37147,7.5482 C0.37147,3.4182 3.74333667,0.0842 7.90775333,0.0842 C9.64410333,0.0842 11.2473533,0.6702 12.51987,1.6522 L12.51987,3.7662 C11.4228033,2.4602 9.75905333,1.6022 7.90775333,1.6022 C4.59235333,1.6022 1.91623667,4.2742 1.91623667,7.5482 C1.91623667,10.8222 4.59235333,13.4782 7.90775333,13.4782 C8.99272,13.4782 10.0071033,13.1882 10.8944367,12.6842 L10.8944367,7.5242 L12.51987,9.1382 L12.51987,13.4342 C11.2473533,14.4162 9.64410333,15.0002 7.90775333,15.0002 C3.74333667,15.0002 0.37147,11.6642 0.37147,7.5482" id="Fill-23" fill="#AAAAAA" mask="url(#mask-6)"></path>
                    </g>
                    <polygon id="Fill-26" fill="#AAAAAA" points="11.9731517 18.8354 11.9731517 5.9194 13.6026183 4.3054 13.6026183 18.8354"></polygon>
                    <polygon id="Fill-28" fill="#AAAAAA" points="33.4907833 8.6 33.4907833 18.836 31.8633333 18.836 31.8633333 4.246 42.3842833 14.484 42.3742 5.874 44.00165 4.246 44.00165 18.836"></polygon>
                    <polygon id="Fill-30" fill="#AAAAAA" points="56.6253783 0.7006 58.0753617 0.7006 55.078595 3.6726"></polygon>
                </g>
            </g>
        </g>
    </g>
</svg>