<?xml version="1.0" encoding="UTF-8"?>
<svg width="25px" height="25px" viewBox="0 0 25 25" version="1.1" xmlns="http://www.w3.org/2000/svg" xmlns:xlink="http://www.w3.org/1999/xlink">
    <title>BE</title>
    <g id="Symbols" stroke="none" stroke-width="1" fill="none" fill-rule="evenodd">
        <g id="Footer-Copy" transform="translate(-1280.000000, -62.000000)" fill="#90939D">
            <path d="M1292.5,62 C1299.40356,62 1305,67.5964403 1305,74.5 C1305,81.4035597 1299.40356,87 1292.5,87 C1285.59644,87 1280,81.4035597 1280,74.5 C1280,67.5964403 1285.59644,62 1292.5,62 Z M1296.11659,72.2907966 C1295.22497,72.2907966 1294.50086,72.5699923 1293.94115,73.1245166 C1293.383,73.6805878 1293.10354,74.479505 1293.10354,75.5212684 C1293.10354,76.6318639 1293.41197,77.4346481 1294.03274,77.9273009 C1294.65038,78.420727 1295.36509,78.6666667 1296.17531,78.6666667 C1297.15617,78.6666667 1297.91942,78.3743233 1298.46426,77.7904099 C1298.81339,77.4222738 1299.01066,77.0595514 1299.05372,76.7037896 L1299.05372,76.7037896 L1297.42938,76.7037896 C1297.33544,76.8801237 1297.22584,77.0177881 1297.10138,77.1175561 C1296.87514,77.3008507 1296.58002,77.3928848 1296.21914,77.3928848 C1295.87627,77.3928848 1295.58428,77.317092 1295.34161,77.16628 C1294.9408,76.9242073 1294.73101,76.5011601 1294.70439,75.8986852 L1294.70439,75.8986852 L1299.13748,75.8986852 C1299.14453,75.379737 1299.1273,74.9806651 1299.08425,74.7053364 C1299.01066,74.2343387 1298.8494,73.8197989 1298.59812,73.4624903 C1298.32257,73.0572312 1297.97265,72.7602475 1297.54758,72.5730858 C1297.1233,72.3851508 1296.64656,72.2907966 1296.11659,72.2907966 Z M1289.80084,70.3333333 L1285.82492,70.3333333 L1285.82492,78.4617169 L1289.53233,78.4617169 C1289.95035,78.4617169 1290.33707,78.4261408 1290.69481,78.3526682 C1291.05256,78.2784223 1291.36177,78.1430781 1291.62401,77.9443155 C1291.85729,77.771075 1292.05143,77.5576179 1292.20643,77.3047177 C1292.45145,76.9226605 1292.57357,76.4903326 1292.57357,76.0085073 C1292.57357,75.5413766 1292.46632,75.1438515 1292.2534,74.8174787 C1292.03812,74.4903326 1291.72187,74.2513534 1291.30228,74.099768 C1291.57861,73.9605568 1291.78762,73.8058778 1291.9301,73.6372776 C1292.18451,73.3356535 1292.31054,72.9358082 1292.31054,72.4400619 C1292.31054,71.9582367 1292.18451,71.5452436 1291.93323,71.199536 C1291.51442,70.6365043 1290.80441,70.3480278 1289.80084,70.3333333 L1289.80084,70.3333333 Z M1289.49084,74.8832173 C1289.84311,74.8863109 1290.11788,74.9327146 1290.31358,75.0208817 C1290.6635,75.1794277 1290.83728,75.4694509 1290.83728,75.8932715 C1290.83728,76.3928848 1290.65724,76.7300851 1290.29636,76.907966 C1290.09831,77.0030936 1289.81962,77.0510441 1289.46266,77.0510441 L1289.46266,77.0510441 L1287.46491,77.0510441 L1287.46491,74.8832173 Z M1296.11738,73.5877804 C1296.49313,73.5877804 1296.80704,73.6952823 1297.06224,73.9110596 C1297.3143,74.1283836 1297.45677,74.4439288 1297.48574,74.8615623 L1297.48574,74.8615623 L1294.74354,74.8615623 C1294.80146,74.4702243 1294.94315,74.1600928 1295.16782,73.9311678 C1295.39249,73.7022428 1295.71031,73.5877804 1296.11738,73.5877804 Z M1289.256,71.7447796 C1289.64975,71.7447796 1289.97384,71.7873163 1290.22904,71.8716164 C1290.52338,71.9938128 1290.67055,72.2436195 1290.67055,72.6233565 C1290.67055,72.9636504 1290.5586,73.2018561 1290.33628,73.3364269 C1290.1124,73.4709977 1289.82197,73.5382831 1289.46579,73.5382831 L1289.46579,73.5382831 L1287.46491,73.5382831 L1287.46491,71.7447796 Z M1297.85836,70.712297 L1294.33256,70.712297 L1294.33256,71.7238979 L1297.85836,71.7238979 L1297.85836,70.712297 Z" id="BE"></path>
        </g>
    </g>
</svg>