<?xml version="1.0" encoding="UTF-8"?>
<svg width="25px" height="25px" viewBox="0 0 25 25" version="1.1" xmlns="http://www.w3.org/2000/svg" xmlns:xlink="http://www.w3.org/1999/xlink">
    <title>FB</title>
    <g id="Symbols" stroke="none" stroke-width="1" fill="none" fill-rule="evenodd">
        <g id="Footer-Copy" transform="translate(-1156.000000, -62.000000)" fill="#90939D">
            <path d="M1168.5,62 C1175.40356,62 1181,67.5964403 1181,74.5 C1181,81.4035597 1175.40356,87 1168.5,87 C1161.59644,87 1156,81.4035597 1156,74.5 C1156,67.5964403 1161.59644,62 1168.5,62 Z M1171.499,67.8333333 L1169.62145,67.8333333 C1167.36622,67.8333333 1166.57243,68.9702048 1166.57243,70.8820652 L1166.57243,72.2891212 L1165.16667,72.2891212 L1165.16667,74.6326662 L1166.57243,74.6326662 L1166.57243,81.4330608 L1169.38623,81.4330608 L1169.38623,74.6324008 L1171.26351,74.6324008 L1171.51229,72.2888558 L1169.38623,72.2888558 L1169.38942,71.1158889 C1169.38942,70.5046562 1169.44749,70.1771438 1170.3254,70.1771438 L1171.499,70.1771438 L1171.499,67.8333333 Z" id="FB"></path>
        </g>
    </g>
</svg>