<?xml version="1.0" encoding="UTF-8"?>
<svg width="25px" height="25px" viewBox="0 0 25 25" version="1.1" xmlns="http://www.w3.org/2000/svg" xmlns:xlink="http://www.w3.org/1999/xlink">
    <title>IN</title>
    <g id="Symbols" stroke="none" stroke-width="1" fill="none" fill-rule="evenodd">
        <g id="Footer-Copy" transform="translate(-1197.000000, -62.000000)" fill="#90939D">
            <path d="M1209.5,62 C1216.40356,62 1222,67.5964403 1222,74.5 C1222,81.4035597 1216.40356,87 1209.5,87 C1202.59644,87 1197,81.4035597 1197,74.5 C1197,67.5964403 1202.59644,62 1209.5,62 Z M1205.83362,72.353046 L1203.00084,72.353046 L1203.00084,80.864354 L1205.83362,80.864354 L1205.83362,72.353046 Z M1212.78809,72.153184 C1211.28408,72.153184 1210.6107,72.9792953 1210.23473,73.5588273 L1210.23473,72.353272 L1207.40161,72.353272 C1207.41265,72.5892388 1207.41716,73.4287517 1207.41804,74.4945713 L1207.41811,75.2639659 C1207.41806,75.3524412 1207.41799,75.4417405 1207.41791,75.5316921 L1207.41723,76.0778551 C1207.41438,77.9153314 1207.4061,79.8763495 1207.4029,80.5872578 L1207.4021,80.7616533 C1207.402,80.7840108 1207.40191,80.8028996 1207.40184,80.818148 L1207.40161,80.86458 L1207.40161,80.86458 L1210.23473,80.86458 L1210.23473,76.1111634 C1210.23473,75.8567884 1210.25311,75.6030349 1210.32801,75.4209108 C1210.53275,74.9127258 1210.9989,74.3865769 1211.78151,74.3865769 C1212.80699,74.3865769 1213.21691,75.1670442 1213.21691,76.3107994 L1213.21691,80.864354 L1216.04957,80.864354 L1216.04968,75.9842301 C1216.04968,73.3699244 1214.65219,72.153184 1212.78809,72.153184 Z M1204.43595,68.25 C1203.46688,68.25 1202.83333,68.8856267 1202.83333,69.7201551 C1202.83333,70.5373974 1203.44816,71.1913269 1204.39918,71.1913269 L1204.41729,71.1913269 C1205.40503,71.1913269 1206.02019,70.5373974 1206.02019,69.7201551 C1206.0018,68.8856267 1205.40503,68.25 1204.43595,68.25 Z" id="IN"></path>
        </g>
    </g>
</svg>