<?xml version="1.0" encoding="UTF-8"?>
<svg width="25px" height="25px" viewBox="0 0 25 25" version="1.1" xmlns="http://www.w3.org/2000/svg" xmlns:xlink="http://www.w3.org/1999/xlink">
    <title>TW</title>
    <g id="Symbols" stroke="none" stroke-width="1" fill="none" fill-rule="evenodd">
        <g id="Footer-Copy" transform="translate(-1239.000000, -62.000000)" fill="#90939D">
            <path d="M1251.5,62 C1258.40356,62 1264,67.5964403 1264,74.5 C1264,81.4035597 1258.40356,87 1251.5,87 C1244.59644,87 1239,81.4035597 1239,74.5 C1239,67.5964403 1244.59644,62 1251.5,62 Z M1252.83061,69.61795 C1251.73767,70.0151698 1251.04693,71.0391141 1251.12563,72.1601566 L1251.15186,72.5926848 L1250.71468,72.5397221 C1249.12337,72.3366987 1247.73315,71.6481844 1246.55278,70.4918335 L1245.97571,69.9180716 L1245.82707,70.3417727 C1245.5123,71.2862731 1245.71341,72.2837361 1246.36917,72.9545961 C1246.71891,73.3253346 1246.64022,73.3782972 1246.03691,73.1576196 C1245.82707,73.0870027 1245.64346,73.0340401 1245.62597,73.0605214 C1245.56477,73.1223111 1245.77461,73.9255778 1245.94074,74.2433536 C1246.16807,74.6847089 1246.63147,75.1172371 1247.13859,75.3732232 L1247.56703,75.5762466 L1247.0599,75.5850738 C1246.57027,75.5850738 1246.55278,75.5939009 1246.60524,75.7792701 C1246.78011,76.353032 1247.47085,76.9621023 1248.24027,77.2269155 L1248.78237,77.4122847 L1248.31022,77.6947521 C1247.61074,78.100799 1246.78885,78.3303038 1245.96697,78.347958 C1245.57351,78.3567851 1245.25,78.3920935 1245.25,78.4185748 C1245.25,78.5068459 1246.31671,79.0011638 1246.93749,79.1953602 C1248.79986,79.7691221 1251.01196,79.5219631 1252.67322,78.5421543 C1253.8536,77.8448129 1255.03397,76.4589573 1255.58481,75.1172371 C1255.88209,74.4022415 1256.17936,73.0958298 1256.17936,72.4691053 C1256.17936,72.0968956 1256.20141,72.0213749 1256.58222,71.6374213 L1256.69523,71.5246049 C1256.98377,71.2421375 1257.25481,70.9331888 1257.30727,70.8449178 C1257.39471,70.6772027 1257.38597,70.6772027 1256.94005,70.8272636 C1256.19685,71.0920767 1256.09193,71.0567683 1256.45916,70.6595485 C1256.7302,70.3770811 1257.05371,69.865109 1257.05371,69.7150482 C1257.05371,69.6885669 1256.92256,69.7327024 1256.77392,69.8121463 C1256.61654,69.9004174 1256.2668,70.032824 1256.00449,70.112268 L1255.53235,70.2623288 L1255.10392,69.9710343 C1254.86784,69.8121463 1254.53559,69.6356042 1254.36072,69.5826416 C1253.9148,69.4590621 1253.23281,69.4767163 1252.83061,69.61795 Z" id="TW"></path>
        </g>
    </g>
</svg>