<?xml version="1.0" encoding="UTF-8"?>
<svg width="25px" height="20px" viewBox="0 0 25 20" version="1.1" xmlns="http://www.w3.org/2000/svg" xmlns:xlink="http://www.w3.org/1999/xlink">
    <title>Menu Hamburger</title>
    <g id="Updated" stroke="none" stroke-width="1" fill="none" fill-rule="evenodd">
        <g id="Homepage-Copy-3" transform="translate(-1332.000000, -38.000000)" fill="#FFFFFF">
            <g id="Menu-Hamburger" transform="translate(1332.000000, 38.000000)">
                <path d="M1.25,0 L23.75,0 C24.4403559,-1.26816328e-16 25,0.559644063 25,1.25 C25,1.94035594 24.4403559,2.5 23.75,2.5 L1.25,2.5 C0.559644063,2.5 8.45442189e-17,1.94035594 0,1.25 C-8.45442189e-17,0.559644063 0.559644063,1.26816328e-16 1.25,0 Z" id="Rectangle-3-Copy-3"></path>
                <rect id="Rectangle-3-Copy-3" x="0" y="8.75" width="25" height="2.5" rx="1.25"></rect>
                <path d="M1.25,17.5 L23.75,17.5 C24.4403559,17.5 25,18.0596441 25,18.75 C25,19.4403559 24.4403559,20 23.75,20 L1.25,20 C0.559644063,20 8.45442189e-17,19.4403559 0,18.75 C-8.45442189e-17,18.0596441 0.559644063,17.5 1.25,17.5 Z" id="Rectangle-3-Copy-3"></path>
            </g>
        </g>
    </g>
</svg>