<?xml version="1.0" encoding="UTF-8"?>
<svg width="20px" height="20px" viewBox="0 0 20 20" version="1.1" xmlns="http://www.w3.org/2000/svg" xmlns:xlink="http://www.w3.org/1999/xlink">
    <title>35511670-5F52-4CC2-ABC1-C36DBBCFCB97</title>
    <g id="Updated" stroke="none" stroke-width="1" fill="none" fill-rule="evenodd">
        <g id="Menu" transform="translate(-1335.000000, -38.000000)" fill="#FFFFFF">
            <g id="Menu-Actiive-Close" transform="translate(1335.000000, 38.000000)">
                <path d="M-1.52728176,8.47271824 L20.9727182,8.47271824 C21.6630742,8.47271824 22.2227182,9.0323623 22.2227182,9.72271824 C22.2227182,10.4130742 21.6630742,10.9727182 20.9727182,10.9727182 L-1.52728176,10.9727182 C-2.2176377,10.9727182 -2.77728176,10.4130742 -2.77728176,9.72271824 C-2.77728176,9.0323623 -2.2176377,8.47271824 -1.52728176,8.47271824 Z" id="Rectangle-3-Copy-3" transform="translate(9.722718, 9.722718) rotate(-45.000000) translate(-9.722718, -9.722718) "></path>
                <path d="M-1.52728176,8.47271824 L20.9727182,8.47271824 C21.6630742,8.47271824 22.2227182,9.0323623 22.2227182,9.72271824 C22.2227182,10.4130742 21.6630742,10.9727182 20.9727182,10.9727182 L-1.52728176,10.9727182 C-2.2176377,10.9727182 -2.77728176,10.4130742 -2.77728176,9.72271824 C-2.77728176,9.0323623 -2.2176377,8.47271824 -1.52728176,8.47271824 Z" id="Rectangle-3-Copy-4" transform="translate(9.722718, 9.722718) scale(-1, 1) rotate(-45.000000) translate(-9.722718, -9.722718) "></path>
            </g>
        </g>
    </g>
</svg>