<?xml version="1.0" encoding="UTF-8"?>
<svg width="46px" height="46px" viewBox="0 0 46 46" version="1.1" xmlns="http://www.w3.org/2000/svg" xmlns:xlink="http://www.w3.org/1999/xlink">
    <title>Combined Shape</title>
    <g id="Updated" stroke="none" stroke-width="1" fill="none" fill-rule="evenodd">
        <g id="Homepage-Copy-3" transform="translate(-884.000000, -6303.000000)" fill="#22242C">
            <g id="Group-11" transform="translate(0.000000, 6167.000000)">
                <g id="Group-10" transform="translate(510.000000, 135.000000)">
                    <path d="M420,1 L420,47 L374,47 L374,1 L420,1 Z M411,30 L404,30 L405.089236,32.1228376 L405.089236,36 L411,36 L411,30 Z M396.764569,11 L390.557119,15.9625532 L388,15.9625532 L388,19.8916309 L390.557119,19.8916309 L390.557119,29.997128 C390.557119,31.5913833 391.125367,33.1271172 392.285979,34.2797472 C392.91297,34.9038748 393.654661,35.357868 394.455403,35.6393136 C396.848045,36.4887787 399.786984,35.8308656 401.888391,33.7388768 C401.928582,33.6987565 401.965682,33.6616527 402,33.6215324 L401.267584,32.2435649 C400.013603,32.8121877 398.56763,32.6483881 397.627145,31.7120459 C397.046839,31.1340718 396.764569,30.367864 396.764569,29.5708872 L396.764569,19.8916309 L399.8516,19.8916309 L400.282578,15.9625532 L396.764569,15.9625532 L396.764569,11 Z" id="Combined-Shape"></path>
                </g>
            </g>
        </g>
    </g>
</svg>