<?xml version="1.0" encoding="UTF-8"?>
<svg width="70px" height="22px" viewBox="0 0 70 22" version="1.1" xmlns="http://www.w3.org/2000/svg" xmlns:xlink="http://www.w3.org/1999/xlink">
    <title>Think Logo White</title>
    <g id="Updated" stroke="none" stroke-width="1" fill="none" fill-rule="evenodd">
        <g id="Homepage-Copy-3" transform="translate(-135.000000, -38.000000)" fill="#FFFFFF" fill-rule="nonzero">
            <g id="Think-Logo-White" transform="translate(135.000000, 38.000000)">
                <polygon id="Shape" points="54.3355556 21.6288889 49.8755556 21.6288889 49.8755556 2.24888889 49.1444444 0.844444444 54.3355556 0.264444444"></polygon>
                <path d="M46.98,11.2888889 L46.98,21.6288889 L42.5177778,21.6288889 L42.5177778,11.6022222 C42.5271224,11.015798 42.3042607,10.4494577 41.8977778,10.0266667 C41.0866667,9.19777778 39.7488889,9.19111111 38.7555556,9.95111111 L38.7555556,21.6288889 L34.2933333,21.6288889 L34.2933333,8.62 L33.52,7.13333333 L38.7555556,7.13333333 L38.7555556,8.62222222 C38.7804458,8.59174272 38.8071615,8.56280071 38.8355556,8.53555556 C40.3466667,6.99333333 42.4577778,6.50888889 44.1688889,7.13555556 C44.7562767,7.34712954 45.2881042,7.68901864 45.7244444,8.13555556 C46.5436396,8.97917892 46.995118,10.1130689 46.98,11.2888889 L46.98,11.2888889 Z" id="Shape"></path>
                <polygon id="Shape" points="31.4 7.13333333 31.4 21.6288889 26.9377778 21.6288889 26.9377778 8.62 26.1644444 7.13333333"></polygon>
                <ellipse id="Oval" cx="29.1688889" cy="2.40888889" rx="2.49111111" ry="2.40888889"></ellipse>
                <polygon id="Shape" points="58.9355556 14.38 62.6933333 21.6288889 58.3555556 21.6288889 54.5955556 14.38 57.8666667 8.19777778 57.3111111 7.13333333 62.6933333 7.13333333"></polygon>
                <path d="M22.8022222,8.13333333 C22.365882,7.68679642 21.8340545,7.34490732 21.2466667,7.13333333 C19.5266667,6.50666667 17.4133333,6.99111111 15.9133333,8.53333333 C15.8849392,8.56057849 15.8582235,8.5895205 15.8333333,8.62 L15.8333333,0.264444444 L10.6288889,0.844444444 L11.3577778,2.24888889 L11.3577778,21.6288889 L15.82,21.6288889 L15.82,9.95111111 C16.8111111,9.19111111 18.1511111,9.19777778 18.9622222,10.0266667 C19.3687051,10.4494577 19.5915668,11.015798 19.5822222,11.6022222 L19.5822222,21.6288889 L24.0444444,21.6288889 L24.0444444,11.2888889 C24.0637182,10.1141951 23.6170933,8.97965602 22.8022222,8.13333333 L22.8022222,8.13333333 Z" id="Shape"></path>
                <path d="M9.53555556,19.1266667 C8.66953993,19.5676046 7.61914921,19.4105368 6.92,18.7355556 C6.51297016,18.3122154 6.29006563,17.7449673 6.3,17.1577778 L6.3,10.0266667 L8.52222222,10.0266667 L8.83333333,7.13777778 L6.3,7.13777778 L6.3,3.47777778 L1.83777778,7.13333333 L0,7.13333333 L0,10.0222222 L1.83777778,10.0222222 L1.83777778,17.4666667 C1.81850402,18.6413605 2.26512891,19.7758995 3.08,20.6222222 C3.51684344,21.0686685 4.04847088,21.4111885 4.63555556,21.6244444 C6.35555556,22.2488889 8.46888889,21.7644444 9.96888889,20.2244444 C9.99777778,20.1933333 10.0244444,20.1666667 10.0488889,20.1377778 L9.53555556,19.1266667 Z" id="Shape"></path>
                <polygon id="Shape" points="69.7222222 17.4266667 65.5866667 17.4266667 64.8133333 17.4266667 65.5866667 18.9133333 65.5866667 21.5622222 65.5866667 21.6288889 69.7888889 21.6288889 69.7888889 17.4266667"></polygon>
            </g>
        </g>
    </g>
</svg>